<svg width="305" height="38" viewBox="0 0 305 38" fill="none" xmlns="http://www.w3.org/2000/svg">
<mask id="path-1-outside-1_9_137" maskUnits="userSpaceOnUse" x="285.776" y="8.1521" width="19" height="30" fill="black">
<rect fill="white" x="285.776" y="8.1521" width="19" height="30"/>
<path d="M291.214 35.4943C290.576 35.4943 290.068 35.2698 289.69 34.8209C289.312 34.3956 289.122 33.8994 289.122 33.3323C289.122 32.8833 289.252 32.5052 289.512 32.1981C289.772 31.8909 290.127 31.7373 290.576 31.7373C290.954 31.7373 291.225 31.82 291.391 31.9854C291.556 32.1508 291.674 32.3398 291.745 32.5525C291.816 32.7652 291.887 32.9542 291.958 33.1196C292.029 33.285 292.171 33.3677 292.383 33.3677C292.643 33.3677 292.88 33.1787 293.092 32.8006C293.305 32.4462 293.6 31.6782 293.978 30.4968C294.215 29.7879 294.356 29.1735 294.404 28.6537C294.474 28.1339 294.463 27.5786 294.368 26.9878C294.297 26.3971 294.12 25.6764 293.837 24.8258L289.973 12.5268C289.808 11.9597 289.642 11.5935 289.477 11.4281C289.335 11.2627 289.099 11.1445 288.768 11.0736L288.236 10.9673C287.929 10.8964 287.776 10.7428 287.776 10.5065C287.776 10.2702 287.941 10.1521 288.272 10.1521H294.12C294.451 10.1521 294.616 10.2702 294.616 10.5065C294.616 10.7665 294.463 10.92 294.155 10.9673L293.588 11.0382C293.021 11.1091 292.655 11.2509 292.49 11.4635C292.348 11.6525 292.36 12.007 292.525 12.5268L295.644 22.9118C295.715 23.1481 295.821 23.2663 295.963 23.2663C296.129 23.2663 296.247 23.1481 296.318 22.9118L299.33 13.1648C299.519 12.5268 299.567 12.0542 299.472 11.7471C299.401 11.4163 299.07 11.2036 298.48 11.1091L297.735 10.9673C297.428 10.8964 297.275 10.7428 297.275 10.5065C297.275 10.2702 297.44 10.1521 297.771 10.1521H302.272C302.603 10.1521 302.768 10.2821 302.768 10.542C302.768 10.7783 302.627 10.9437 302.343 11.0382L302.024 11.1445C301.67 11.2627 301.374 11.4753 301.138 11.7825C300.902 12.0897 300.654 12.6213 300.394 13.3775L295.112 29.8588C294.593 31.5128 294.12 32.7415 293.695 33.5449C293.293 34.3483 292.903 34.8682 292.525 35.1044C292.147 35.3644 291.71 35.4943 291.214 35.4943Z"/>
</mask>
<path d="M291.214 35.4943C290.576 35.4943 290.068 35.2698 289.69 34.8209C289.312 34.3956 289.122 33.8994 289.122 33.3323C289.122 32.8833 289.252 32.5052 289.512 32.1981C289.772 31.8909 290.127 31.7373 290.576 31.7373C290.954 31.7373 291.225 31.82 291.391 31.9854C291.556 32.1508 291.674 32.3398 291.745 32.5525C291.816 32.7652 291.887 32.9542 291.958 33.1196C292.029 33.285 292.171 33.3677 292.383 33.3677C292.643 33.3677 292.88 33.1787 293.092 32.8006C293.305 32.4462 293.6 31.6782 293.978 30.4968C294.215 29.7879 294.356 29.1735 294.404 28.6537C294.474 28.1339 294.463 27.5786 294.368 26.9878C294.297 26.3971 294.12 25.6764 293.837 24.8258L289.973 12.5268C289.808 11.9597 289.642 11.5935 289.477 11.4281C289.335 11.2627 289.099 11.1445 288.768 11.0736L288.236 10.9673C287.929 10.8964 287.776 10.7428 287.776 10.5065C287.776 10.2702 287.941 10.1521 288.272 10.1521H294.12C294.451 10.1521 294.616 10.2702 294.616 10.5065C294.616 10.7665 294.463 10.92 294.155 10.9673L293.588 11.0382C293.021 11.1091 292.655 11.2509 292.49 11.4635C292.348 11.6525 292.36 12.007 292.525 12.5268L295.644 22.9118C295.715 23.1481 295.821 23.2663 295.963 23.2663C296.129 23.2663 296.247 23.1481 296.318 22.9118L299.33 13.1648C299.519 12.5268 299.567 12.0542 299.472 11.7471C299.401 11.4163 299.07 11.2036 298.48 11.1091L297.735 10.9673C297.428 10.8964 297.275 10.7428 297.275 10.5065C297.275 10.2702 297.44 10.1521 297.771 10.1521H302.272C302.603 10.1521 302.768 10.2821 302.768 10.542C302.768 10.7783 302.627 10.9437 302.343 11.0382L302.024 11.1445C301.67 11.2627 301.374 11.4753 301.138 11.7825C300.902 12.0897 300.654 12.6213 300.394 13.3775L295.112 29.8588C294.593 31.5128 294.12 32.7415 293.695 33.5449C293.293 34.3483 292.903 34.8682 292.525 35.1044C292.147 35.3644 291.71 35.4943 291.214 35.4943Z" fill="white"/>
<path d="M289.69 34.8209L291.219 33.5326L291.202 33.5122L291.184 33.4922L289.69 34.8209ZM289.512 32.1981L287.986 30.9062H287.986L289.512 32.1981ZM291.391 31.9854L292.805 30.5712L292.805 30.5712L291.391 31.9854ZM291.958 33.1196L290.12 33.9074L290.12 33.9074L291.958 33.1196ZM293.092 32.8006L291.377 31.7716L291.363 31.7957L291.349 31.8201L293.092 32.8006ZM293.978 30.4968L292.081 29.8643L292.077 29.8757L292.073 29.8872L293.978 30.4968ZM294.404 28.6537L292.422 28.3835L292.416 28.4279L292.412 28.4726L294.404 28.6537ZM294.368 26.9878L292.382 27.2261L292.387 27.2651L292.393 27.3038L294.368 26.9878ZM293.837 24.8258L291.928 25.4251L291.934 25.4417L291.939 25.4582L293.837 24.8258ZM289.973 12.5268L288.053 13.0868L288.059 13.1066L288.065 13.1262L289.973 12.5268ZM289.477 11.4281L287.958 12.7297L288.008 12.788L288.063 12.8423L289.477 11.4281ZM288.768 11.0736L289.187 9.11803L289.174 9.11516L289.16 9.11247L288.768 11.0736ZM288.236 10.9673L287.787 12.9161L287.815 12.9227L287.844 12.9285L288.236 10.9673ZM294.155 10.9673L294.404 12.9519L294.432 12.9484L294.46 12.944L294.155 10.9673ZM293.588 11.0382L293.836 13.0227L293.836 13.0227L293.588 11.0382ZM292.49 11.4635L290.911 10.2356L290.9 10.2495L290.89 10.2635L292.49 11.4635ZM292.525 12.5268L294.441 11.9515L294.436 11.9359L294.431 11.9204L292.525 12.5268ZM295.644 22.9118L297.56 22.3371L297.56 22.3365L295.644 22.9118ZM296.318 22.9118L294.407 22.3212L294.404 22.3292L294.402 22.3371L296.318 22.9118ZM299.33 13.1648L301.241 13.7554L301.245 13.7442L301.248 13.733L299.33 13.1648ZM299.472 11.7471L297.516 12.1661L297.535 12.2516L297.56 12.3352L299.472 11.7471ZM298.48 11.1091L298.105 13.0738L298.134 13.0793L298.164 13.084L298.48 11.1091ZM297.735 10.9673L297.286 12.9161L297.323 12.9248L297.361 12.932L297.735 10.9673ZM302.343 11.0382L302.975 12.9356L302.975 12.9356L302.343 11.0382ZM302.024 11.1445L301.392 9.24715L301.392 9.24716L302.024 11.1445ZM301.138 11.7825L299.553 10.5631V10.5631L301.138 11.7825ZM300.394 13.3775L298.502 12.7273L298.495 12.7472L298.489 12.7672L300.394 13.3775ZM295.112 29.8588L293.208 29.2485L293.204 29.2591L295.112 29.8588ZM293.695 33.5449L291.927 32.6091L291.916 32.6297L291.906 32.6505L293.695 33.5449ZM292.525 35.1044L291.465 33.4084L291.428 33.4316L291.392 33.4564L292.525 35.1044ZM291.214 33.4943C291.171 33.4943 291.15 33.4906 291.144 33.4895C291.139 33.4886 291.147 33.4897 291.162 33.4966C291.17 33.4999 291.178 33.504 291.186 33.5088C291.194 33.5136 291.202 33.5185 291.208 33.5232C291.221 33.533 291.224 33.5382 291.219 33.5326L288.16 36.1092C288.954 37.0521 290.044 37.4943 291.214 37.4943V33.4943ZM291.184 33.4922C291.145 33.4476 291.135 33.4235 291.133 33.4177C291.131 33.4121 291.122 33.3892 291.122 33.3323H287.122C287.122 34.3911 287.493 35.3596 288.195 36.1496L291.184 33.4922ZM291.122 33.3323C291.122 33.3021 291.127 33.3179 291.111 33.3621C291.095 33.4093 291.068 33.4554 291.039 33.4899L287.986 30.9062C287.384 31.6167 287.122 32.4687 287.122 33.3323H291.122ZM291.039 33.4899C290.979 33.5612 290.885 33.6369 290.768 33.6876C290.657 33.7358 290.581 33.7373 290.576 33.7373V29.7373C289.615 29.7373 288.672 30.0945 287.986 30.9062L291.039 33.4899ZM290.576 33.7373C290.628 33.7373 290.584 33.7442 290.481 33.7127C290.369 33.6787 290.171 33.5938 289.977 33.3996L292.805 30.5712C292.09 29.8558 291.171 29.7373 290.576 29.7373V33.7373ZM289.977 33.3996C289.958 33.3806 289.933 33.3513 289.908 33.3113C289.882 33.271 289.862 33.2278 289.848 33.185L293.643 31.92C293.469 31.3999 293.18 30.9463 292.805 30.5712L289.977 33.3996ZM289.848 33.185C289.932 33.438 290.022 33.6805 290.12 33.9074L293.796 32.3318C293.752 32.2279 293.7 32.0923 293.643 31.92L289.848 33.185ZM290.12 33.9074C290.307 34.3442 290.632 34.7548 291.11 35.0332C291.564 35.2983 292.025 35.3677 292.383 35.3677V31.3677C292.529 31.3677 292.813 31.3957 293.125 31.5781C293.461 31.7739 293.68 32.0604 293.796 32.3318L290.12 33.9074ZM292.383 35.3677C293.758 35.3677 294.515 34.3499 294.835 33.7811L291.349 31.8201C291.318 31.8746 291.357 31.7834 291.506 31.6642C291.682 31.5237 291.987 31.3677 292.383 31.3677V35.3677ZM294.807 33.8296C295.159 33.2432 295.517 32.2495 295.883 31.1063L292.073 29.8872C291.891 30.4577 291.735 30.9057 291.607 31.2409C291.542 31.408 291.488 31.5368 291.445 31.6325C291.4 31.7331 291.377 31.7725 291.377 31.7716L294.807 33.8296ZM295.876 31.1292C296.142 30.3311 296.33 29.5584 296.395 28.8348L292.412 28.4726C292.383 28.7887 292.287 29.2447 292.081 29.8643L295.876 31.1292ZM296.385 28.9239C296.486 28.1844 296.464 27.43 296.343 26.6719L292.393 27.3038C292.461 27.7272 292.463 28.0833 292.422 28.3835L296.385 28.9239ZM296.354 26.7496C296.261 25.9757 296.041 25.1146 295.734 24.1933L291.939 25.4582C292.199 26.2383 292.333 26.8185 292.382 27.2261L296.354 26.7496ZM295.745 24.2264L291.881 11.9275L288.065 13.1262L291.928 25.4251L295.745 24.2264ZM291.893 11.9668C291.795 11.631 291.682 11.3016 291.548 11.0036C291.427 10.7352 291.225 10.3475 290.891 10.0139L288.063 12.8423C287.967 12.7464 287.917 12.6689 287.903 12.6464C287.887 12.6203 287.888 12.6176 287.902 12.65C287.916 12.6807 287.937 12.7316 287.964 12.8073C287.991 12.8822 288.02 12.9747 288.053 13.0868L291.893 11.9668ZM290.995 10.1265C290.45 9.48963 289.724 9.23303 289.187 9.11803L288.349 13.0292C288.393 13.0387 288.367 13.0382 288.299 13.0043C288.228 12.9689 288.094 12.8875 287.958 12.7297L290.995 10.1265ZM289.16 9.11247L288.629 9.00614L287.844 12.9285L288.376 13.0348L289.16 9.11247ZM288.686 9.01852C288.742 9.03144 289.023 9.10255 289.305 9.38475C289.638 9.71785 289.776 10.1456 289.776 10.5065H285.776C285.776 11.1037 285.99 11.7265 286.477 12.2132C286.912 12.6489 287.424 12.8323 287.787 12.9161L288.686 9.01852ZM289.776 10.5065C289.776 10.6799 289.745 10.9274 289.619 11.1972C289.488 11.4777 289.29 11.7057 289.062 11.8682C288.653 12.1608 288.284 12.1521 288.272 12.1521V8.1521C287.929 8.1521 287.312 8.20249 286.737 8.61325C286.038 9.11257 285.776 9.86273 285.776 10.5065H289.776ZM288.272 12.1521H294.12V8.1521H288.272V12.1521ZM294.12 12.1521C294.108 12.1521 293.739 12.1608 293.33 11.8682C293.102 11.7057 292.904 11.4777 292.773 11.1972C292.647 10.9274 292.616 10.6799 292.616 10.5065H296.616C296.616 9.86273 296.354 9.11257 295.655 8.61325C295.08 8.20249 294.463 8.1521 294.12 8.1521V12.1521ZM292.616 10.5065C292.616 10.2177 292.716 9.77291 293.087 9.40241C293.416 9.07369 293.759 9.00471 293.851 8.99056L294.46 12.944C294.859 12.8826 295.433 12.7132 295.915 12.2309C296.439 11.7068 296.616 11.0553 296.616 10.5065H292.616ZM293.907 8.98275L293.34 9.05364L293.836 13.0227L294.404 12.9519L293.907 8.98275ZM293.34 9.05364C292.961 9.10105 292.554 9.18255 292.166 9.33255C291.791 9.47804 291.296 9.74112 290.911 10.2356L294.068 12.6914C293.956 12.8361 293.841 12.928 293.761 12.9814C293.682 13.034 293.625 13.0571 293.61 13.0628C293.589 13.0711 293.649 13.0462 293.836 13.0227L293.34 9.05364ZM290.89 10.2635C290.438 10.8656 290.379 11.5237 290.393 11.9378C290.408 12.3688 290.507 12.7816 290.619 13.1332L294.431 11.9204C294.377 11.7522 294.389 11.7279 294.391 11.8045C294.393 11.8641 294.399 12.2505 294.09 12.6635L290.89 10.2635ZM290.61 13.1021L293.729 23.4871L297.56 22.3365L294.441 11.9515L290.61 13.1021ZM293.728 23.4865C293.807 23.7471 293.961 24.1491 294.29 24.5156C294.672 24.9393 295.253 25.2663 295.963 25.2663V21.2663C296.531 21.2663 296.989 21.5341 297.264 21.8397C297.487 22.088 297.553 22.3129 297.56 22.3371L293.728 23.4865ZM295.963 25.2663C296.582 25.2663 297.16 25.0217 297.59 24.5918C297.968 24.2135 298.145 23.7817 298.233 23.4865L294.402 22.3371C294.42 22.2782 294.501 22.0236 294.762 21.7635C295.073 21.4517 295.509 21.2663 295.963 21.2663V25.2663ZM298.228 23.5024L301.241 13.7554L297.419 12.5742L294.407 22.3212L298.228 23.5024ZM301.248 13.733C301.452 13.0456 301.665 12.0728 301.384 11.1589L297.56 12.3352C297.529 12.2319 297.522 12.1579 297.52 12.1295C297.518 12.1004 297.521 12.0992 297.517 12.1329C297.51 12.2056 297.484 12.3543 297.413 12.5966L301.248 13.733ZM301.428 11.328C301.075 9.68087 299.524 9.25069 298.796 9.1342L298.164 13.084C298.315 13.1081 298.245 13.1219 298.089 13.0218C298.001 12.9649 297.877 12.8662 297.762 12.7099C297.643 12.5486 297.558 12.3614 297.516 12.1661L301.428 11.328ZM298.854 9.1444L298.11 9.00263L297.361 12.932L298.105 13.0738L298.854 9.1444ZM298.185 9.01852C298.241 9.03144 298.522 9.10254 298.804 9.38469C299.137 9.71777 299.275 10.1455 299.275 10.5065H295.275C295.275 11.1038 295.489 11.7265 295.976 12.2132C296.411 12.649 296.922 12.8323 297.286 12.9161L298.185 9.01852ZM299.275 10.5065C299.275 10.6799 299.244 10.9274 299.118 11.1973C298.987 11.4777 298.789 11.7057 298.561 11.8682C298.151 12.1608 297.783 12.1521 297.771 12.1521V8.1521C297.428 8.1521 296.811 8.2025 296.236 8.61321C295.537 9.11249 295.275 9.86263 295.275 10.5065H299.275ZM297.771 12.1521H302.272V8.1521H297.771V12.1521ZM302.272 12.1521C302.23 12.1521 301.83 12.153 301.409 11.8222C300.896 11.4192 300.768 10.866 300.768 10.542H304.768C304.768 9.958 304.558 9.20988 303.88 8.67694C303.293 8.21615 302.645 8.1521 302.272 8.1521V12.1521ZM300.768 10.542C300.768 10.2263 300.876 9.85325 301.143 9.54169C301.38 9.26513 301.631 9.16725 301.711 9.14083L302.975 12.9356C303.338 12.8146 303.802 12.5868 304.181 12.1448C304.589 11.6679 304.768 11.0939 304.768 10.542H300.768ZM301.711 9.14082L301.392 9.24715L302.656 13.0419L302.975 12.9356L301.711 9.14082ZM301.392 9.24716C300.644 9.49622 300.022 9.95256 299.553 10.5631L302.723 13.0019C302.73 12.9924 302.725 13.0013 302.705 13.0157C302.696 13.0223 302.686 13.0283 302.677 13.0332C302.667 13.0381 302.66 13.0407 302.656 13.0419L301.392 9.24716ZM299.553 10.5631C299.107 11.1426 298.774 11.9362 298.502 12.7273L302.285 14.0276C302.4 13.6941 302.501 13.4413 302.587 13.2574C302.677 13.0638 302.727 12.9967 302.723 13.0019L299.553 10.5631ZM298.489 12.7672L293.208 29.2485L297.017 30.4691L302.298 13.9878L298.489 12.7672ZM293.204 29.2591C292.695 30.8813 292.265 31.9703 291.927 32.6091L295.462 34.4807C295.975 33.5128 296.491 32.1443 297.02 30.4584L293.204 29.2591ZM291.906 32.6505C291.74 32.9823 291.603 33.2019 291.501 33.3374C291.392 33.4824 291.373 33.4662 291.465 33.4084L293.585 36.8004C294.46 36.2539 295.054 35.299 295.484 34.4393L291.906 32.6505ZM291.392 33.4564C291.375 33.4682 291.34 33.4943 291.214 33.4943V37.4943C292.08 37.4943 292.919 37.2605 293.658 36.7525L291.392 33.4564Z" fill="#0D11FF" mask="url(#path-1-outside-1_9_137)"/>
<path d="M282.262 10.4711C282.261 10.4604 282.262 10.4595 282.262 10.471V10.4711ZM279.47 11.6709C279.47 11.671 279.471 11.6711 279.471 11.6712C279.471 11.6711 279.47 11.6711 279.47 11.671C279.466 11.6706 279.465 11.6703 279.465 11.6703C279.465 11.6702 279.467 11.6704 279.47 11.6709ZM279.993 26.2662C279.923 26.293 279.812 26.326 279.648 26.3578L279.234 26.4267L279.204 26.4318L279.174 26.4387C278.93 26.4949 278.628 26.6039 278.375 26.8378C278.089 27.1017 277.938 27.4586 277.938 27.8384C277.938 28.2209 278.085 28.648 278.48 28.9373C278.816 29.1841 279.2 29.2283 279.47 29.2283H285.46C285.744 29.2283 286.142 29.1759 286.483 28.9029C286.867 28.5958 286.991 28.1655 286.991 27.803C286.991 27.4765 286.883 27.1211 286.601 26.8389C286.342 26.5798 286.027 26.474 285.78 26.4293L285.746 26.4231L285.712 26.4192L284.755 26.3129L284.747 26.312L284.739 26.3113C284.617 26.2997 284.529 26.2832 284.468 26.2675C284.452 26.174 284.439 26.039 284.439 25.8536V17.6307C284.439 16.6197 284.549 15.7476 284.754 15.0042C284.992 14.2291 285.265 13.6792 285.546 13.31L285.553 13.3012L285.559 13.2922C285.7 13.0996 285.81 13.0033 285.879 12.9587C285.911 12.9377 285.932 12.9298 285.941 12.927C285.949 12.9244 285.953 12.9242 285.956 12.9242C285.956 12.9242 285.956 12.9242 285.956 12.9242C286.001 12.9886 286.047 13.0724 286.091 13.1817L286.106 13.2203L286.125 13.2575C286.279 13.5661 286.468 13.8504 286.692 14.1068L286.736 14.157L286.786 14.2009C287.23 14.5895 287.793 14.6964 288.295 14.6964C288.961 14.6964 289.646 14.4902 290.107 13.8922C290.512 13.396 290.677 12.7947 290.677 12.1723C290.677 11.3648 290.402 10.6338 289.883 10.0135C289.263 9.24564 288.358 8.93939 287.374 8.93939C286.16 8.93939 285.124 9.42988 284.253 10.2778C284.231 10.0598 284.164 9.79438 283.982 9.55208C283.702 9.17768 283.293 9.04572 282.943 9.04572C282.626 9.04572 282.367 9.16165 282.189 9.26798C282.017 9.37161 281.862 9.50217 281.727 9.63489C281.34 9.97733 280.974 10.2582 280.628 10.4821L280.616 10.4897L280.604 10.4977C280.401 10.6375 280.012 10.7941 279.346 10.9016L279.333 10.9036L279.321 10.9059C279.075 10.952 278.775 11.0354 278.513 11.2154C278.213 11.4216 277.938 11.7822 277.938 12.2787C277.938 12.6341 278.066 13.0279 278.407 13.3167C278.695 13.5603 279.03 13.6383 279.285 13.6624L280.002 13.7648C280.009 13.7659 280.016 13.7669 280.022 13.768C280.027 13.8153 280.029 13.8737 280.029 13.9445V25.8536C280.029 26.0508 280.012 26.183 279.993 26.2644C279.993 26.265 279.993 26.2656 279.993 26.2662ZM279.451 27.2279C279.445 27.2276 279.441 27.2271 279.441 27.2269C279.442 27.2268 279.445 27.227 279.451 27.2279ZM279.6 28.3942C279.599 28.3942 279.601 28.3937 279.603 28.3928L279.604 28.3927C279.601 28.3938 279.6 28.3942 279.6 28.3942ZM285.479 27.2275C285.479 27.2276 285.476 27.2279 285.471 27.2281C285.476 27.2275 285.479 27.2274 285.479 27.2275ZM280.061 26.2355C280.063 26.2341 280.064 26.2334 280.064 26.2334C280.065 26.2335 280.063 26.2342 280.061 26.2355Z" fill="white" stroke="#0D11FF" stroke-width="2"/>
<path d="M267.883 24.5726L267.886 24.5822L267.89 24.5918C268.479 26.0774 269.285 27.2916 270.337 28.178C271.409 29.0802 272.651 29.5473 274.03 29.5473C275.473 29.5473 276.733 29.0306 277.75 28.0139L277.75 28.014L277.759 28.0039C278.798 26.9357 279.446 25.2158 279.834 23.0533L279.837 23.039L279.839 23.0247C279.882 22.7358 279.91 22.3213 279.735 21.9343C279.638 21.7167 279.474 21.505 279.229 21.3566C278.99 21.2117 278.74 21.1675 278.531 21.1675C278.22 21.1675 277.881 21.2579 277.593 21.5015C277.317 21.7348 277.177 22.034 277.106 22.2942L277.101 22.3116L277.097 22.3291C276.754 23.7922 276.34 24.6693 275.941 25.1183C275.574 25.5306 275.12 25.7397 274.491 25.7397C273.813 25.7397 273.165 25.4007 272.554 24.3563C271.97 23.3576 271.61 21.75 271.592 19.4104H278.035C278.571 19.4104 279.12 19.2192 279.497 18.7219C279.834 18.2769 279.921 17.7284 279.921 17.2408C279.921 14.6058 279.484 12.4767 278.409 11.0749C277.377 9.6758 275.962 8.93939 274.242 8.93939C272.83 8.93939 271.552 9.43732 270.44 10.3825C269.342 11.3163 268.511 12.5787 267.921 14.1182C267.325 15.6731 267.04 17.4409 267.04 19.4029C267.04 21.3159 267.313 23.0449 267.883 24.5726ZM271.598 19.1426C271.598 19.1427 271.597 19.1443 271.597 19.1472C271.597 19.144 271.598 19.1425 271.598 19.1426ZM274.774 16.5243H271.716C271.914 14.9088 272.268 13.7297 272.729 12.9278C273.256 12.0543 273.756 11.8255 274.207 11.8255C274.377 11.8255 274.491 11.8695 274.589 11.9454C274.701 12.0318 274.847 12.2027 274.99 12.5338L275.908 12.1369L274.99 12.5338C275.291 13.2293 275.475 14.2791 275.475 15.7522C275.475 16.1987 275.368 16.3482 275.329 16.3888C275.297 16.4217 275.176 16.5243 274.774 16.5243ZM271.184 16.5242C271.179 16.524 271.177 16.5238 271.178 16.5237C271.178 16.5236 271.18 16.5237 271.184 16.5242Z" fill="white" stroke="#0D11FF" stroke-width="2"/>
<path d="M261.874 28.3573L261.888 28.3732L261.902 28.3886C262.645 29.1638 263.597 29.5473 264.68 29.5473C265.923 29.5473 266.969 28.9735 267.786 27.9844C268.686 26.9248 269.079 25.3401 269.153 23.4469L269.153 23.4274V23.408C269.153 23.1239 269.101 22.7258 268.828 22.3845C268.521 22.0006 268.091 21.8763 267.728 21.8763C267.366 21.8763 266.981 22.0019 266.685 22.3199C266.418 22.6079 266.317 22.9558 266.277 23.2311L266.273 23.2593L266.271 23.2877C266.18 24.3529 265.984 24.9475 265.797 25.228L265.788 25.242L265.779 25.2563C265.617 25.5189 265.508 25.527 265.424 25.527C265.39 25.527 265.361 25.5254 265.339 25.5232C265.295 25.3931 265.255 25.1833 265.255 24.8612V12.1445H267.055C267.368 12.1445 267.789 12.0789 268.139 11.773C268.514 11.4447 268.622 11.0051 268.622 10.6482C268.622 10.2914 268.514 9.85176 268.139 9.52351C267.789 9.21758 267.368 9.15203 267.055 9.15203H265.255V5.72158C265.255 5.44899 265.213 5.06747 264.981 4.72971C264.703 4.32441 264.273 4.15448 263.865 4.15448C263.348 4.15448 262.979 4.4404 262.76 4.71135C262.551 4.9692 262.413 5.28388 262.314 5.58257L262.314 5.58256L262.312 5.58878C261.979 6.60965 261.609 7.36149 261.224 7.88372C260.827 8.39689 260.286 8.90388 259.578 9.3977C259.199 9.65393 258.824 10.0897 258.824 10.7191C258.824 11.1049 258.968 11.5396 259.366 11.8381C259.71 12.0961 260.106 12.1445 260.391 12.1445H260.845V24.8257C260.845 26.2388 261.115 27.4948 261.874 28.3573ZM267.153 23.3886C267.153 23.3886 267.153 23.3905 267.153 23.3948C267.153 23.3952 267.153 23.3955 267.153 23.3958C267.153 23.3912 267.153 23.3887 267.153 23.3886ZM267.071 11.1527C267.071 11.1527 267.069 11.1527 267.066 11.1522C267.07 11.1524 267.071 11.1526 267.071 11.1527ZM267.071 10.1438C267.071 10.1439 267.07 10.1441 267.066 10.1443C267.069 10.1438 267.071 10.1438 267.071 10.1438ZM263.252 5.67742C263.252 5.67728 263.253 5.68035 263.254 5.68709C263.252 5.68094 263.252 5.67757 263.252 5.67742Z" fill="white" stroke="#0D11FF" stroke-width="2"/>
<path d="M248.947 24.5726L248.95 24.5822L248.954 24.5918C249.543 26.0774 250.349 27.2916 251.401 28.178C252.473 29.0802 253.715 29.5473 255.094 29.5473C256.537 29.5473 257.797 29.0306 258.814 28.0139L258.814 28.014L258.823 28.0039C259.862 26.9357 260.51 25.2158 260.898 23.0533L260.901 23.039L260.903 23.0247C260.946 22.7358 260.974 22.3213 260.799 21.9343C260.701 21.7167 260.538 21.505 260.293 21.3566C260.054 21.2117 259.804 21.1675 259.595 21.1675C259.284 21.1675 258.945 21.2579 258.657 21.5015C258.381 21.7348 258.24 22.034 258.17 22.2942L258.165 22.3116L258.161 22.3291C257.818 23.7922 257.404 24.6693 257.005 25.1183C256.638 25.5306 256.184 25.7397 255.555 25.7397C254.877 25.7397 254.229 25.4007 253.618 24.3563C253.034 23.3576 252.674 21.75 252.656 19.4104H259.099C259.634 19.4104 260.184 19.2192 260.561 18.7219C260.898 18.2769 260.985 17.7284 260.985 17.2408C260.985 14.6058 260.548 12.4767 259.473 11.0749C258.441 9.6758 257.026 8.93939 255.306 8.93939C253.894 8.93939 252.616 9.43732 251.504 10.3825C250.406 11.3163 249.575 12.5787 248.985 14.1182C248.389 15.6731 248.104 17.4409 248.104 19.4029C248.104 21.3159 248.377 23.0449 248.947 24.5726ZM252.662 19.1426C252.662 19.1427 252.661 19.1443 252.661 19.1472C252.661 19.144 252.661 19.1425 252.662 19.1426ZM255.838 16.5243H252.78C252.978 14.9088 253.332 13.7297 253.793 12.9278C254.319 12.0543 254.82 11.8255 255.271 11.8255C255.441 11.8255 255.554 11.8695 255.653 11.9454C255.765 12.0318 255.911 12.2027 256.054 12.5338L256.972 12.1369L256.054 12.5338C256.355 13.2293 256.539 14.2791 256.539 15.7522C256.539 16.1987 256.432 16.3482 256.393 16.3888C256.361 16.4217 256.24 16.5243 255.838 16.5243ZM252.248 16.5242C252.243 16.524 252.241 16.5238 252.242 16.5237C252.242 16.5236 252.244 16.5237 252.248 16.5242Z" fill="white" stroke="#0D11FF" stroke-width="2"/>
<path d="M225.578 26.4267L225.548 26.4318L225.518 26.4387C225.274 26.4949 224.972 26.6039 224.719 26.8378C224.433 27.1017 224.282 27.4586 224.282 27.8384C224.282 28.2209 224.429 28.648 224.824 28.9373C225.16 29.1841 225.544 29.2283 225.814 29.2283H231.804C232.088 29.2283 232.486 29.1759 232.827 28.9029C232.934 28.8175 233.021 28.7225 233.09 28.6222C233.162 28.7281 233.252 28.8281 233.366 28.9172C233.7 29.1801 234.086 29.2283 234.356 29.2283H240.381C240.656 29.2283 241.049 29.1671 241.376 28.868C241.454 28.796 241.519 28.7191 241.573 28.6397C241.643 28.7392 241.73 28.8331 241.837 28.9172C242.171 29.1801 242.557 29.2283 242.827 29.2283H248.887C249.163 29.2283 249.556 29.1671 249.882 28.868C250.225 28.5539 250.313 28.146 250.313 27.8384C250.313 27.53 250.223 27.1744 249.952 26.8792C249.694 26.5969 249.368 26.4776 249.102 26.4293L249.08 26.4253L249.058 26.4223L248.285 26.3168C248.284 26.3167 248.283 26.3166 248.282 26.3164C248.141 26.2962 248.037 26.2727 247.964 26.2509C247.949 26.1583 247.938 26.0283 247.938 25.8536V14.3344C247.938 12.7722 247.596 11.4139 246.746 10.4299C245.939 9.44366 244.852 8.93939 243.571 8.93939C242.683 8.93939 241.818 9.1411 240.986 9.52942C240.268 9.86443 239.491 10.4152 238.661 11.1411C238.349 10.5475 237.923 10.0501 237.369 9.68298C236.671 9.18217 235.867 8.93939 234.994 8.93939C234.106 8.93939 233.234 9.14074 232.384 9.52423L232.384 9.52416L232.373 9.52942C231.817 9.78912 231.227 10.1825 230.606 10.6889V10.471C230.606 10.2331 230.567 9.87237 230.326 9.55208C230.046 9.17768 229.637 9.04572 229.287 9.04572C228.97 9.04572 228.711 9.16165 228.533 9.26798C228.361 9.37161 228.206 9.50217 228.071 9.63489C227.684 9.97733 227.318 10.2582 226.972 10.4821L226.96 10.4897L226.948 10.4977C226.745 10.6375 226.356 10.7941 225.69 10.9016L225.677 10.9036L225.665 10.9059C225.419 10.952 225.119 11.0354 224.857 11.2154C224.557 11.4216 224.282 11.7822 224.282 12.2787C224.282 12.6341 224.41 13.0279 224.751 13.3167C225.039 13.5603 225.374 13.6383 225.629 13.6624L226.346 13.7648C226.353 13.7659 226.36 13.7669 226.366 13.768C226.37 13.8153 226.373 13.8737 226.373 13.9445V25.8536C226.373 26.0508 226.356 26.183 226.337 26.2644C226.337 26.265 226.337 26.2656 226.337 26.2662C226.267 26.293 226.156 26.326 225.992 26.3578L225.578 26.4267ZM233.22 26.8792C233.176 26.9271 233.136 26.9767 233.102 27.0275C233.057 26.962 233.005 26.8988 232.945 26.8389C232.686 26.5798 232.371 26.474 232.124 26.4293L232.09 26.4231L232.056 26.4192L231.099 26.3129L231.091 26.312L231.083 26.3113C230.961 26.2997 230.873 26.2832 230.812 26.2675C230.796 26.174 230.783 26.039 230.783 25.8536V16.3547C230.783 15.6194 230.931 14.9834 231.209 14.4272L231.209 14.4272L231.215 14.4155C231.51 13.8053 231.876 13.3595 232.297 13.0432L232.297 13.0432L232.302 13.0394C232.728 12.7161 233.167 12.5698 233.647 12.5698C234.109 12.5698 234.367 12.7106 234.551 12.9263L234.56 12.9371L234.569 12.9476C234.739 13.1359 234.951 13.632 234.951 14.7243V25.8536C234.951 26.0508 234.934 26.183 234.915 26.2644C234.913 26.2719 234.911 26.2788 234.91 26.285C234.851 26.3052 234.754 26.3309 234.604 26.3523L234.729 27.2283L234.604 26.3523L234.108 26.4232L234.089 26.4259L234.07 26.4293C233.805 26.4776 233.478 26.5969 233.22 26.8792ZM234.341 27.2277C234.341 27.2276 234.344 27.2277 234.349 27.2283C234.343 27.2281 234.34 27.2278 234.341 27.2277ZM242.812 27.2277C242.812 27.2276 242.815 27.2276 242.82 27.2283C242.814 27.2281 242.812 27.2278 242.812 27.2277ZM228.606 10.471V10.4711C228.605 10.4604 228.606 10.4595 228.606 10.471ZM225.814 11.6709C225.814 11.671 225.815 11.6711 225.815 11.6712C225.815 11.6711 225.814 11.6711 225.814 11.671C225.81 11.6706 225.809 11.6703 225.809 11.6703C225.809 11.6702 225.811 11.6704 225.814 11.6709ZM225.785 27.2269C225.786 27.2268 225.789 27.227 225.795 27.2279C225.789 27.2276 225.785 27.2271 225.785 27.2269ZM225.944 28.3942C225.943 28.3942 225.945 28.3937 225.947 28.3928L225.948 28.3927C225.945 28.3938 225.944 28.3942 225.944 28.3942ZM231.823 27.2275C231.823 27.2276 231.82 27.2279 231.815 27.2281C231.82 27.2275 231.823 27.2274 231.823 27.2275ZM234.966 26.2617C234.967 26.261 234.968 26.2606 234.968 26.2607C234.968 26.2607 234.967 26.261 234.966 26.2617ZM241.691 26.8792C241.645 26.9292 241.604 26.9809 241.568 27.0338C241.532 26.9809 241.492 26.9292 241.446 26.8792C241.187 26.5969 240.861 26.4776 240.595 26.4293L240.574 26.4253L240.552 26.4223L239.772 26.316C239.595 26.2919 239.472 26.263 239.391 26.2372C239.374 26.1546 239.361 26.0302 239.361 25.8536V16.3547C239.361 15.6194 239.509 14.9834 239.787 14.4272L239.787 14.4272L239.793 14.4155C240.088 13.8053 240.453 13.3595 240.875 13.0432L240.875 13.0432L240.88 13.0394C241.305 12.7161 241.744 12.5698 242.224 12.5698C242.686 12.5698 242.945 12.7106 243.128 12.9263L243.137 12.9371L243.147 12.9476C243.316 13.1359 243.528 13.632 243.528 14.7243V25.8536C243.528 26.0507 243.511 26.1828 243.492 26.2642C243.414 26.292 243.284 26.3249 243.087 26.3506L243.087 26.3506L243.075 26.3523L242.579 26.4232L242.56 26.4259L242.541 26.4293C242.276 26.4776 241.949 26.5969 241.691 26.8792ZM239.296 26.1997C239.296 26.1997 239.297 26.2 239.298 26.2008C239.297 26.2001 239.296 26.1997 239.296 26.1997ZM243.56 26.2349C243.56 26.2349 243.56 26.2353 243.558 26.2361C243.559 26.2353 243.56 26.2349 243.56 26.2349ZM247.845 26.2055C247.845 26.2055 247.846 26.2058 247.847 26.2064C247.846 26.2058 247.845 26.2055 247.845 26.2055ZM226.405 26.2355C226.407 26.2341 226.408 26.2334 226.408 26.2334C226.409 26.2335 226.407 26.2342 226.405 26.2355Z" fill="white" stroke="#0D11FF" stroke-width="2"/>
<path d="M214.227 24.5726L214.231 24.5822L214.234 24.5918C214.824 26.0774 215.629 27.2916 216.682 28.178C217.753 29.0802 218.996 29.5473 220.374 29.5473C221.818 29.5473 223.077 29.0306 224.094 28.0139L224.094 28.014L224.104 28.0039C225.142 26.9357 225.79 25.2158 226.179 23.0533L226.181 23.039L226.184 23.0247C226.227 22.7358 226.254 22.3213 226.08 21.9343C225.982 21.7167 225.818 21.505 225.573 21.3566C225.334 21.2117 225.085 21.1675 224.876 21.1675C224.564 21.1675 224.225 21.2579 223.937 21.5015C223.662 21.7348 223.521 22.034 223.45 22.2942L223.445 22.3116L223.441 22.3291C223.098 23.7922 222.684 24.6693 222.285 25.1183C221.919 25.5306 221.464 25.7397 220.835 25.7397C220.157 25.7397 219.509 25.4007 218.898 24.3563C218.314 23.3576 217.955 21.75 217.937 19.4104H224.379C224.915 19.4104 225.464 19.2192 225.841 18.7219C226.178 18.2769 226.265 17.7284 226.265 17.2408C226.265 14.6058 225.828 12.4767 224.753 11.0749C223.721 9.6758 222.307 8.93939 220.587 8.93939C219.174 8.93939 217.897 9.43732 216.785 10.3825C215.686 11.3163 214.856 12.5787 214.266 14.1182C213.67 15.6731 213.384 17.4409 213.384 19.4029C213.384 21.3159 213.657 23.0449 214.227 24.5726ZM217.942 19.1426C217.942 19.1427 217.942 19.1443 217.941 19.1472C217.942 19.144 217.942 19.1425 217.942 19.1426ZM221.119 16.5243H218.06C218.259 14.9088 218.613 13.7297 219.074 12.9278C219.6 12.0543 220.1 11.8255 220.551 11.8255C220.722 11.8255 220.835 11.8695 220.933 11.9454C221.046 12.0318 221.192 12.2027 221.335 12.5338L222.253 12.1369L221.335 12.5338C221.636 13.2293 221.82 14.2791 221.82 15.7522C221.82 16.1987 221.712 16.3482 221.673 16.3888C221.642 16.4217 221.521 16.5243 221.119 16.5243ZM217.528 16.5242C217.524 16.524 217.522 16.5238 217.522 16.5237C217.522 16.5236 217.524 16.5237 217.528 16.5242Z" fill="white" stroke="#0D11FF" stroke-width="2"/>
<path d="M202.845 27.684L202.845 27.684L202.852 27.6896C204.358 28.9268 206.119 29.5473 208.094 29.5473C209.269 29.5473 210.296 29.4508 211.154 29.2383C211.99 29.0598 212.742 28.8123 213.397 28.4847L213.411 28.478L213.424 28.4708C213.702 28.3213 213.96 28.1063 214.146 27.8066C214.33 27.5085 214.408 27.1817 214.411 26.8604L214.552 21.1288L214.552 21.1165V21.1041C214.552 20.8214 214.503 20.467 214.295 20.1444C214.063 19.7867 213.712 19.585 213.341 19.5177L213.328 19.5153L213.315 19.5132C212.964 19.4593 212.531 19.5039 212.16 19.8052C211.824 20.0777 211.682 20.4472 211.62 20.7421L211.199 22.4612L211.199 22.4612L211.197 22.468C210.754 24.3344 210.248 25.3691 209.797 25.8199L209.791 25.8263L209.784 25.8329C209.365 26.268 208.791 26.5194 207.952 26.5194C207.305 26.5194 206.604 26.2288 205.838 25.4441C205.111 24.6757 204.452 23.4674 203.911 21.7338C203.405 20.0366 203.14 17.9085 203.14 15.3268C203.14 11.519 203.678 8.7591 204.651 6.93934C205.668 5.05785 206.775 4.3823 207.917 4.3823C208.512 4.3823 209.016 4.60164 209.477 5.11457L209.484 5.1213L209.49 5.12793C209.976 5.64924 210.505 6.72337 210.992 8.5335L210.992 8.53444L211.342 9.83071C211.407 10.0999 211.539 10.4128 211.809 10.6633C212.104 10.9379 212.467 11.0457 212.808 11.0457C213.217 11.0457 213.655 10.8813 213.944 10.4717C214.188 10.126 214.233 9.73116 214.233 9.44316V9.4333L214.233 9.42343L214.127 4.0443C214.123 3.36618 213.796 2.79201 213.206 2.44763L213.178 2.43139L213.149 2.41698C212.502 2.09349 211.779 1.84561 210.987 1.66587C210.158 1.45349 209.225 1.35443 208.2 1.35443C206.327 1.35443 204.62 1.98547 203.107 3.20603C201.624 4.39855 200.471 6.06345 199.619 8.14256L199.619 8.14255L199.617 8.14829C198.779 10.2297 198.375 12.6299 198.375 15.3268C198.375 18.1048 198.74 20.5629 199.497 22.681L199.499 22.6878L199.501 22.6945C200.28 24.7802 201.385 26.4625 202.845 27.684ZM213.579 21.1451C213.579 21.1452 213.579 21.1468 213.578 21.1497C213.579 21.1465 213.579 21.145 213.579 21.1451ZM212.551 21.0765C212.551 21.0764 212.552 21.0781 212.552 21.0817C212.551 21.0783 212.551 21.0765 212.551 21.0765ZM212.231 9.49378C212.231 9.49365 212.231 9.49058 212.232 9.48496C212.231 9.4911 212.231 9.49392 212.231 9.49378ZM213.288 9.36702C213.288 9.36703 213.288 9.36629 213.287 9.36473L213.288 9.36702Z" fill="white" stroke="#0D11FF" stroke-width="2"/>
<path d="M187.496 26.4258L187.515 26.4232L188.011 26.3523C188.358 26.3027 188.511 26.2238 188.564 26.1876C188.565 26.1842 188.566 26.1802 188.568 26.1753C188.584 26.1273 188.605 26.0273 188.605 25.8536V5.54437C188.605 5.47328 188.603 5.41478 188.599 5.36747L188.59 5.36632L187.775 5.25999L187.75 5.25675L187.725 5.25226C187.459 5.20394 187.133 5.08463 186.875 4.80233C186.604 4.50712 186.514 4.15143 186.514 3.84307C186.514 3.53471 186.604 3.17903 186.875 2.88381C187.127 2.60804 187.444 2.4878 187.707 2.43734C188.324 2.30445 188.83 2.15451 189.234 1.99306M187.496 26.4258L189.234 1.99306M187.496 26.4258L187.477 26.4292C187.211 26.4776 186.885 26.5969 186.626 26.8792C186.356 27.1744 186.266 27.5301 186.266 27.8384C186.266 28.146 186.354 28.5538 186.697 28.868C187.023 29.167 187.416 29.2283 187.691 29.2283H194C194.276 29.2283 194.669 29.167 194.995 28.868C195.338 28.5538 195.426 28.146 195.426 27.8384C195.426 27.5301 195.336 27.1744 195.065 26.8792C194.807 26.5969 194.48 26.4776 194.215 26.4292L194.19 26.4248L194.165 26.4215L193.356 26.316C193.217 26.2959 193.114 26.2726 193.041 26.2509C193.026 26.1582 193.016 26.0283 193.016 25.8536V2.5671C193.016 2.29451 192.974 1.91299 192.742 1.57523C192.463 1.16993 192.034 1 191.626 1C191.342 1 191.083 1.08351 190.887 1.16553C190.679 1.25224 190.464 1.36986 190.248 1.50441C190.005 1.65371 189.672 1.81798 189.234 1.99306M187.496 26.4258L189.234 1.99306M192.923 26.2055C192.923 26.2055 192.923 26.2058 192.924 26.2064C192.923 26.2058 192.923 26.2055 192.923 26.2055ZM188.574 5.216C188.574 5.21597 188.574 5.21688 188.575 5.21881C188.574 5.217 188.574 5.21603 188.574 5.216Z" fill="white" stroke="#0D11FF" stroke-width="2"/>
<path d="M175.344 28.3329L175.351 28.3396L175.358 28.3461C176.205 29.1621 177.28 29.5473 178.497 29.5473C179.526 29.5473 180.466 29.3092 181.257 28.7717C181.73 28.4496 182.18 28.0397 182.608 27.5537C182.741 27.8693 182.905 28.1678 183.1 28.4473L183.107 28.4573L183.115 28.4671C183.638 29.1769 184.388 29.5473 185.267 29.5473C186.41 29.5473 187.349 28.9567 188.074 28.0303C188.896 26.985 189.208 25.4557 189.208 23.6561C189.208 23.3681 189.163 22.9732 188.919 22.6275C188.63 22.218 188.192 22.0535 187.783 22.0535C187.414 22.0535 186.976 22.1772 186.661 22.5647C186.454 22.8201 186.368 23.1088 186.337 23.3624V14.0154C186.337 12.5362 186.022 11.2402 185.218 10.306C184.389 9.34311 183.195 8.93939 181.829 8.93939C180.922 8.93939 180.03 9.13845 179.159 9.51945C178.307 9.89238 177.524 10.3969 176.812 11.0281C176.098 11.6385 175.506 12.3357 175.047 13.1198L175.047 13.1198L175.041 13.1294C174.587 13.9248 174.342 14.7676 174.342 15.6458C174.342 16.1308 174.464 16.6782 174.883 17.0972C175.302 17.5163 175.85 17.6382 176.335 17.6382C177.035 17.6382 177.65 17.3435 178.163 16.8946L178.163 16.8946L178.166 16.8919C178.803 16.3302 179.131 15.5245 179.271 14.6375C179.474 13.4469 179.775 12.7956 180.051 12.4913C180.408 12.1013 180.699 12.0027 180.942 12.0027C181.237 12.0027 181.417 12.0972 181.582 12.3283L181.589 12.3377L181.596 12.347C181.746 12.5475 181.927 13.0695 181.927 14.1572V17.1086C180.526 17.5726 179.256 18.1756 178.123 18.9225C176.928 19.7112 175.955 20.6219 175.232 21.6641C174.487 22.7149 174.094 23.87 174.094 25.1093C174.094 26.3704 174.49 27.4785 175.344 28.3329ZM183.276 26.7131C183.276 26.7131 183.275 26.7136 183.274 26.7144L183.276 26.7131ZM188.323 23.5962C188.324 23.5963 188.323 23.599 188.323 23.6041C188.323 23.5986 188.323 23.5961 188.323 23.5962ZM187.206 23.6055C187.206 23.6053 187.206 23.6081 187.207 23.6143C187.206 23.6087 187.205 23.6056 187.206 23.6055ZM180.512 25.5132C180.156 25.8009 179.812 25.9169 179.454 25.9169C179.101 25.9169 178.978 25.8137 178.902 25.7111C178.785 25.552 178.646 25.1926 178.646 24.4713C178.646 23.4176 178.961 22.5689 179.57 21.8669C180.132 21.2223 180.906 20.6683 181.927 20.2248V22.0257C181.927 22.826 181.784 23.5097 181.52 24.0952C181.241 24.7122 180.9 25.1749 180.512 25.5132ZM181.927 19.4299C181.927 19.4299 181.927 19.4311 181.927 19.4337L181.927 19.4299Z" fill="white" stroke="#0D11FF" stroke-width="2"/>
<path d="M159.84 26.4267L159.81 26.4318L159.78 26.4387C159.536 26.4949 159.234 26.6039 158.981 26.8378C158.695 27.1017 158.544 27.4586 158.544 27.8384C158.544 28.2209 158.691 28.648 159.085 28.9373C159.422 29.1841 159.806 29.2283 160.076 29.2283H166.066C166.35 29.2283 166.748 29.1759 167.089 28.9029C167.288 28.7433 167.418 28.5506 167.496 28.3513C167.573 28.5562 167.705 28.7549 167.911 28.9172C168.246 29.1801 168.632 29.2283 168.901 29.2283H174.856C175.131 29.2283 175.524 29.1671 175.85 28.868C176.193 28.5539 176.281 28.146 176.281 27.8384C176.281 27.53 176.191 27.1744 175.921 26.8792C175.662 26.5969 175.336 26.4776 175.07 26.4293L175.048 26.4253L175.026 26.4223L174.253 26.3168C174.252 26.3167 174.251 26.3166 174.25 26.3164C174.109 26.2962 174.005 26.2727 173.932 26.2509C173.917 26.1583 173.906 26.0283 173.906 25.8536V14.3344C173.906 12.7684 173.563 11.4074 172.709 10.4228C171.865 9.42699 170.728 8.93939 169.397 8.93939C168.452 8.93939 167.544 9.13504 166.682 9.52423L166.682 9.52416L166.671 9.52942C166.1 9.79589 165.498 10.1981 164.868 10.7151V10.471C164.868 10.2331 164.829 9.87237 164.588 9.55208C164.308 9.17768 163.899 9.04572 163.549 9.04572C163.232 9.04572 162.973 9.16165 162.795 9.26798C162.623 9.37161 162.468 9.50217 162.333 9.63489C161.946 9.97733 161.58 10.2582 161.234 10.4821L161.222 10.4897L161.21 10.4977C161.007 10.6375 160.618 10.7941 159.952 10.9016L159.939 10.9036L159.927 10.9059C159.681 10.952 159.381 11.0354 159.119 11.2154C158.819 11.4216 158.544 11.7822 158.544 12.2787C158.544 12.6341 158.672 13.0279 159.013 13.3167C159.301 13.5603 159.636 13.6383 159.891 13.6624L160.608 13.7648C160.615 13.7659 160.622 13.7669 160.628 13.768C160.632 13.8153 160.635 13.8737 160.635 13.9445V25.8536C160.635 26.0508 160.618 26.183 160.599 26.2644C160.599 26.265 160.599 26.2656 160.599 26.2662C160.529 26.293 160.418 26.326 160.254 26.3578L159.84 26.4267ZM167.765 26.8792C167.646 27.0095 167.562 27.1516 167.505 27.2962C167.442 27.1341 167.346 26.9777 167.207 26.8389C166.948 26.5798 166.632 26.474 166.386 26.4293L166.352 26.4231L166.318 26.4192L165.361 26.3129L165.353 26.312L165.345 26.3113C165.223 26.2997 165.135 26.2832 165.074 26.2675C165.058 26.174 165.045 26.039 165.045 25.8536V16.3547C165.045 15.6194 165.193 14.9834 165.471 14.4272L165.471 14.4272L165.477 14.4155C165.768 13.8147 166.138 13.3719 166.579 13.0548L166.579 13.0548L166.585 13.0506C167.029 12.726 167.508 12.5698 168.05 12.5698C168.616 12.5698 168.921 12.7324 169.115 12.9476C169.284 13.1359 169.496 13.632 169.496 14.7243V25.8536C169.496 26.0508 169.479 26.183 169.46 26.2644C169.458 26.2719 169.457 26.2788 169.455 26.285C169.397 26.3052 169.299 26.3309 169.15 26.3523L168.653 26.4232L168.635 26.4259L168.616 26.4293C168.35 26.4776 168.024 26.5969 167.765 26.8792ZM168.886 27.2277C168.886 27.2276 168.889 27.2276 168.895 27.2283C168.889 27.2281 168.886 27.2278 168.886 27.2277ZM163.889 11.5869C163.889 11.5869 163.889 11.5863 163.891 11.5852C163.889 11.5864 163.889 11.5869 163.889 11.5869ZM162.868 10.471V10.4711C162.867 10.4604 162.868 10.4595 162.868 10.471ZM160.076 11.6709C160.076 11.671 160.077 11.6711 160.077 11.6712C160.077 11.6711 160.076 11.6711 160.076 11.671C160.072 11.6706 160.071 11.6703 160.071 11.6703C160.071 11.6702 160.073 11.6704 160.076 11.6709ZM160.047 27.2269C160.048 27.2268 160.051 27.227 160.057 27.2279C160.05 27.2276 160.047 27.2271 160.047 27.2269ZM160.205 28.3942C160.205 28.3942 160.207 28.3937 160.209 28.3928L160.21 28.3927C160.207 28.3938 160.206 28.3942 160.205 28.3942ZM166.085 27.2275C166.085 27.2276 166.082 27.2279 166.077 27.2281C166.082 27.2275 166.085 27.2274 166.085 27.2275ZM169.511 26.2617C169.512 26.261 169.513 26.2606 169.513 26.2607C169.513 26.2607 169.512 26.261 169.511 26.2617ZM173.813 26.2055C173.813 26.2055 173.814 26.2058 173.815 26.2064L173.813 26.2055ZM160.667 26.2355C160.669 26.2341 160.67 26.2334 160.67 26.2334C160.67 26.2335 160.669 26.2342 160.667 26.2355Z" fill="white" stroke="#0D11FF" stroke-width="2"/>
<path d="M149.237 28.0948L149.247 28.1035L149.258 28.112C150.397 29.057 151.708 29.5473 153.157 29.5473C154.606 29.5473 155.916 29.057 157.056 28.112L157.061 28.1074L157.067 28.1028C158.183 27.1498 159.025 25.8804 159.617 24.3397C160.236 22.7898 160.537 21.0804 160.537 19.2256C160.537 17.3685 160.235 15.6663 159.612 14.1348C158.997 12.6214 158.145 11.3711 157.036 10.4233C155.918 9.44678 154.613 8.93939 153.157 8.93939C151.718 8.93939 150.417 9.45084 149.282 10.4194L149.881 11.1209L149.282 10.4194C148.171 11.3676 147.318 12.6193 146.701 14.1348C146.078 15.6663 145.777 17.3685 145.777 19.2256C145.777 21.0831 146.078 22.7947 146.699 24.3465C147.312 25.8796 148.15 27.1437 149.237 28.0948ZM155.843 19.2256C155.843 21.9955 155.536 23.9375 155.005 25.1519C154.745 25.7478 154.452 26.1186 154.163 26.3389C153.887 26.5492 153.566 26.6612 153.157 26.6612C152.747 26.6612 152.426 26.5492 152.151 26.3389C151.862 26.1186 151.569 25.7478 151.308 25.1519C150.778 23.9375 150.471 21.9955 150.471 19.2256C150.471 16.4679 150.778 14.5353 151.308 13.3274C151.568 12.7348 151.86 12.3661 152.149 12.1468C152.425 11.9374 152.746 11.8255 153.157 11.8255C153.567 11.8255 153.889 11.9374 154.165 12.1468C154.453 12.3661 154.746 12.7348 155.006 13.3274C155.536 14.5353 155.843 16.4679 155.843 19.2256Z" fill="white" stroke="#0D11FF" stroke-width="2"/>
<path d="M141.521 6.93554L141.533 6.94814L141.545 6.96033C142.085 7.50016 142.764 7.78488 143.528 7.78488C144.294 7.78488 144.975 7.49794 145.5 6.93554L144.769 6.25322L145.5 6.93554C146.025 6.37307 146.265 5.67001 146.265 4.90636C146.265 4.14973 146.028 3.44718 145.488 2.90019C144.965 2.346 144.289 2.06329 143.528 2.06329C142.764 2.06329 142.085 2.34801 141.545 2.88784L142.223 3.56566L141.545 2.88784C140.996 3.43661 140.756 4.14404 140.756 4.90636C140.756 5.67 140.996 6.37306 141.521 6.93554ZM140.316 26.4267L140.285 26.4318L140.255 26.4387C140.012 26.4949 139.71 26.6038 139.456 26.8378C139.17 27.1017 139.019 27.4585 139.019 27.8384C139.019 28.2209 139.166 28.648 139.561 28.9372C139.897 29.1841 140.281 29.2283 140.551 29.2283H146.47C146.754 29.2283 147.152 29.1759 147.493 28.9028C147.877 28.5957 148.002 28.1655 148.002 27.803C148.002 27.4765 147.893 27.1211 147.611 26.8389C147.352 26.5798 147.037 26.474 146.791 26.4292L146.761 26.4238L146.731 26.4202L145.845 26.3139L145.843 26.3136C145.797 26.3083 145.761 26.3019 145.732 26.2955C145.732 26.2955 145.732 26.2955 145.732 26.2954C145.713 26.2016 145.698 26.0583 145.698 25.8536V10.471C145.698 10.2331 145.658 9.87232 145.418 9.55204C145.137 9.17764 144.729 9.0457 144.379 9.0457C144.062 9.0457 143.802 9.16162 143.625 9.26795C143.452 9.37154 143.298 9.50203 143.163 9.63468C142.79 9.96445 142.413 10.237 142.035 10.4562C141.726 10.6348 141.264 10.7951 140.604 10.9015L140.592 10.9036L140.579 10.9059C140.334 10.9519 140.034 11.0353 139.772 11.2154C139.472 11.4216 139.197 11.7822 139.197 12.2786C139.197 12.6341 139.324 13.0278 139.666 13.3167C139.954 13.5602 140.288 13.6383 140.543 13.6624L141.26 13.7648C141.267 13.7658 141.274 13.7669 141.281 13.7679C141.285 13.8152 141.288 13.8737 141.288 13.9445V25.8536C141.288 26.0301 141.274 26.1545 141.258 26.2371C141.152 26.2743 140.987 26.3164 140.747 26.3548L140.747 26.3547L140.741 26.3558L140.316 26.4267ZM143.698 10.471V10.471C143.697 10.4657 143.697 10.4628 143.698 10.4627C143.698 10.4626 143.698 10.4652 143.698 10.471ZM140.728 11.6709C140.729 11.671 140.729 11.671 140.73 11.6711C140.729 11.6711 140.729 11.671 140.728 11.671C140.725 11.6706 140.723 11.6703 140.723 11.6702C140.723 11.6702 140.725 11.6703 140.728 11.6709ZM140.523 27.2269C140.523 27.2268 140.526 27.2269 140.533 27.2279C140.526 27.2276 140.523 27.2271 140.523 27.2269ZM140.681 28.3942C140.681 28.3941 140.682 28.3936 140.685 28.3928L140.685 28.3927C140.682 28.3938 140.681 28.3942 140.681 28.3942ZM146.489 27.2274C146.49 27.2276 146.487 27.2279 146.481 27.2281C146.486 27.2274 146.489 27.2273 146.489 27.2274Z" fill="white" stroke="#0D11FF" stroke-width="2"/>
<path d="M134.137 28.3573L134.151 28.3732L134.165 28.3886C134.908 29.1638 135.86 29.5473 136.943 29.5473C138.187 29.5473 139.232 28.9735 140.049 27.9844C140.949 26.9248 141.342 25.3401 141.416 23.4469L141.417 23.4274V23.408C141.417 23.1239 141.364 22.7258 141.091 22.3845C140.784 22.0006 140.354 21.8763 139.991 21.8763C139.63 21.8763 139.244 22.0019 138.948 22.3199C138.681 22.6078 138.58 22.9558 138.541 23.2311L138.537 23.2593L138.534 23.2877C138.444 24.3529 138.248 24.9475 138.061 25.228L138.051 25.242L138.042 25.2563C137.88 25.5189 137.771 25.527 137.688 25.527C137.653 25.527 137.624 25.5254 137.602 25.5232C137.558 25.3931 137.518 25.1833 137.518 24.8612V12.1445H139.318C139.631 12.1445 140.052 12.0789 140.402 11.773C140.777 11.4447 140.885 11.0051 140.885 10.6482C140.885 10.2914 140.777 9.85178 140.402 9.52352C140.052 9.21758 139.631 9.15203 139.318 9.15203H137.518V5.72158C137.518 5.449 137.477 5.06749 137.244 4.72973C136.966 4.32441 136.536 4.15448 136.128 4.15448C135.611 4.15448 135.242 4.44041 135.023 4.71136C134.814 4.96921 134.676 5.28389 134.577 5.58257L134.577 5.58256L134.575 5.58878C134.242 6.60965 133.872 7.36149 133.487 7.88373C133.091 8.3969 132.549 8.90388 131.842 9.3977C131.462 9.65389 131.087 10.0896 131.087 10.7191C131.087 11.1049 131.231 11.5396 131.629 11.8381C131.973 12.0961 132.369 12.1445 132.655 12.1445H133.108V24.8257C133.108 26.2388 133.378 27.4948 134.137 28.3573ZM139.416 23.3886C139.416 23.3885 139.416 23.3905 139.416 23.3948C139.416 23.3952 139.416 23.3955 139.416 23.3958C139.416 23.3912 139.416 23.3887 139.416 23.3886ZM139.334 11.1527C139.334 11.1527 139.333 11.1527 139.329 11.1522C139.333 11.1524 139.335 11.1526 139.334 11.1527ZM139.334 10.1438C139.335 10.1439 139.333 10.1441 139.329 10.1443C139.332 10.1438 139.334 10.1438 139.334 10.1438ZM135.516 5.67741C135.516 5.67727 135.516 5.68034 135.517 5.68708C135.516 5.68093 135.515 5.67756 135.516 5.67741Z" fill="white" stroke="#0D11FF" stroke-width="2"/>
<path d="M120.302 28.3329L120.309 28.3396L120.315 28.3461C121.163 29.1621 122.237 29.5473 123.455 29.5473C124.484 29.5473 125.424 29.3092 126.214 28.7717C126.688 28.4496 127.137 28.0397 127.565 27.5536C127.699 27.8693 127.863 28.1678 128.058 28.4473L128.065 28.4573L128.072 28.4671C128.595 29.1769 129.346 29.5473 130.224 29.5473C131.368 29.5473 132.307 28.9566 133.032 28.0301C133.854 26.9849 134.166 25.4556 134.166 23.6561C134.166 23.3681 134.121 22.9732 133.877 22.6275C133.588 22.218 133.15 22.0535 132.741 22.0535C132.372 22.0535 131.934 22.1772 131.619 22.5647C131.412 22.8201 131.326 23.1087 131.295 23.3623V14.0154C131.295 12.5362 130.98 11.2402 130.176 10.306C129.347 9.34311 128.152 8.93939 126.786 8.93939C125.88 8.93939 124.988 9.13845 124.117 9.51945C123.265 9.89238 122.482 10.3969 121.77 11.0281C121.055 11.6385 120.464 12.3357 120.005 13.1198L120.004 13.1198L119.999 13.1294C119.544 13.9248 119.3 14.7676 119.3 15.6458C119.3 16.1308 119.422 16.6782 119.841 17.0972C120.26 17.5163 120.808 17.6382 121.293 17.6382C121.993 17.6382 122.608 17.3435 123.121 16.8946L123.121 16.8946L123.124 16.8919C123.76 16.3302 124.089 15.5245 124.229 14.6375C124.432 13.447 124.733 12.7956 125.009 12.4913C125.365 12.1013 125.657 12.0027 125.9 12.0027C126.194 12.0027 126.375 12.0972 126.54 12.3283L126.546 12.3377L126.553 12.347C126.704 12.5475 126.885 13.0695 126.885 14.1572V17.1086C125.484 17.5726 124.214 18.1756 123.081 18.9225C121.885 19.7112 120.913 20.6219 120.19 21.6641C119.445 22.7149 119.052 23.87 119.052 25.1093C119.052 26.3704 119.448 27.4785 120.302 28.3329ZM128.233 26.7131C128.233 26.7131 128.233 26.7136 128.232 26.7144L128.233 26.7131ZM133.281 23.5962C133.281 23.5963 133.281 23.599 133.28 23.6041C133.281 23.5986 133.281 23.5961 133.281 23.5962ZM132.163 23.6055C132.163 23.6053 132.164 23.6081 132.165 23.6143C132.164 23.6087 132.163 23.6056 132.163 23.6055ZM125.469 25.5132C125.114 25.8009 124.77 25.9169 124.412 25.9169C124.059 25.9169 123.936 25.8137 123.86 25.7111C123.742 25.552 123.604 25.1926 123.604 24.4713C123.604 23.4176 123.919 22.5689 124.528 21.8669C125.09 21.2223 125.864 20.6683 126.885 20.2248V22.0257C126.885 22.826 126.742 23.5097 126.477 24.0952C126.199 24.7122 125.858 25.1749 125.469 25.5132ZM126.885 19.4299C126.885 19.4299 126.885 19.4311 126.885 19.4337L126.885 19.4299Z" fill="white" stroke="#0D11FF" stroke-width="2"/>
<path d="M120.17 3.71018C120.17 3.71033 120.167 3.71015 120.16 3.7092C120.167 3.70955 120.17 3.71003 120.17 3.71018ZM120.141 2.52647C120.141 2.5265 120.14 2.52666 120.138 2.52686C120.14 2.52654 120.141 2.52644 120.141 2.52647ZM115.204 2.54293C115.204 2.54288 115.205 2.54334 115.208 2.54443L115.208 2.54433C115.205 2.54348 115.204 2.54297 115.204 2.54293ZM115.046 3.71018C115.045 3.71003 115.049 3.70955 115.056 3.7092C115.049 3.71015 115.046 3.71033 115.046 3.71018ZM115.471 4.61581C115.644 4.64707 115.764 4.71814 115.87 4.84338L115.883 4.85853L115.892 4.86861C115.896 4.87496 115.925 4.92138 115.956 5.04251C115.994 5.19809 116.023 5.43006 116.023 5.75696V18.2042L109.143 3.07476C109.143 3.07472 109.143 3.07467 109.143 3.07463C108.958 2.66738 108.677 2.30785 108.278 2.0571C107.881 1.80773 107.437 1.7088 106.993 1.7088H103.2C102.93 1.7088 102.547 1.75303 102.21 1.99986C101.816 2.28912 101.668 2.71618 101.668 3.09868C101.668 3.47857 101.819 3.83539 102.105 4.09931C102.359 4.33325 102.661 4.4422 102.904 4.4984L102.931 4.50454L102.958 4.50922L103.773 4.65099C103.97 4.68529 104.11 4.72058 104.203 4.75118C104.213 4.81865 104.22 4.91554 104.22 5.04808V25.1801C104.22 25.7191 104.125 26.0002 104.045 26.1313C104.014 26.1673 103.878 26.286 103.438 26.3538L103.008 26.4199C102.739 26.4466 102.394 26.5361 102.105 26.8023C101.775 27.1068 101.668 27.5022 101.668 27.8384C101.668 28.2209 101.816 28.6479 102.21 28.9372C102.547 29.184 102.93 29.2282 103.2 29.2282H108.269C108.538 29.2282 108.922 29.184 109.259 28.9372C109.653 28.6479 109.8 28.2209 109.8 27.8384C109.8 27.5021 109.693 27.1068 109.363 26.8023C109.075 26.5361 108.73 26.4465 108.46 26.4199L108.037 26.3547C108.036 26.3546 108.035 26.3544 108.034 26.3543C107.663 26.2945 107.521 26.1948 107.472 26.146C107.398 25.9965 107.319 25.7023 107.319 25.1801V10.4917L115.441 28.1132C115.441 28.1136 115.441 28.1139 115.441 28.1143C115.749 28.7853 116.322 29.5472 117.307 29.5472C117.796 29.5472 118.262 29.3659 118.609 28.9775C119.042 28.5224 119.122 27.8961 119.122 27.413V5.75696C119.122 5.42517 119.148 5.18561 119.186 5.0216C119.216 4.88769 119.246 4.83732 119.249 4.83249L119.257 4.82262L119.269 4.80715C119.277 4.79709 119.398 4.66122 119.904 4.58326L120.334 4.51718C120.604 4.49049 120.949 4.40098 121.237 4.13476C121.567 3.83025 121.674 3.43491 121.674 3.09868C121.674 2.71618 121.527 2.28912 121.132 1.99986C120.796 1.75303 120.412 1.7088 120.142 1.7088H115.074C114.804 1.7088 114.42 1.75303 114.084 1.99987C113.689 2.28912 113.542 2.71618 113.542 3.09868C113.542 3.47857 113.693 3.83539 113.979 4.09931C114.232 4.33325 114.534 4.4422 114.778 4.4984L114.808 4.50533L114.838 4.5104L115.471 4.61581ZM108.267 28.4106C108.267 28.4106 108.266 28.4105 108.264 28.4102L108.267 28.4106ZM108.297 27.2269C108.297 27.227 108.294 27.2275 108.287 27.2278C108.293 27.2269 108.297 27.2267 108.297 27.2269ZM103.172 27.2269C103.172 27.2267 103.176 27.2269 103.182 27.2278C103.175 27.2275 103.172 27.227 103.172 27.2269ZM103.33 2.54293C103.33 2.54287 103.332 2.54345 103.336 2.54482C103.332 2.54367 103.33 2.54298 103.33 2.54293ZM103.172 3.71018C103.172 3.71003 103.175 3.70955 103.182 3.7092C103.176 3.71015 103.172 3.71033 103.172 3.71018ZM103.201 28.4106C103.201 28.4105 103.202 28.4104 103.205 28.4102L103.201 28.4106ZM104.182 4.64844C104.181 4.64575 104.18 4.64428 104.18 4.64422C104.18 4.64416 104.181 4.64551 104.182 4.64844Z" fill="white" stroke="#0D11FF" stroke-width="2"/>
<path d="M83.0456 26.4232L83.0268 26.4258L83.0081 26.4292C82.7424 26.4776 82.4162 26.5969 82.1574 26.8792C81.8868 27.1744 81.7971 27.5301 81.7971 27.8384C81.7971 28.146 81.885 28.5539 82.2277 28.868C82.554 29.167 82.947 29.2283 83.2224 29.2283H89.4251C89.7005 29.2283 90.0936 29.167 90.4198 28.868C90.585 28.7166 90.691 28.5433 90.7565 28.3701C90.8344 28.5683 90.9641 28.7599 91.1643 28.9172C91.4988 29.18 91.8851 29.2283 92.1542 29.2283H98.1088C98.3842 29.2283 98.7773 29.167 99.1035 28.868C99.4462 28.5539 99.5341 28.146 99.5341 27.8384C99.5341 27.5301 99.4444 27.1744 99.1738 26.8792C98.915 26.5969 98.5889 26.4776 98.3231 26.4292L98.3013 26.4253L98.2793 26.4223L97.5059 26.3168C97.5049 26.3167 97.504 26.3166 97.503 26.3164C97.3623 26.2962 97.2586 26.2727 97.1851 26.2509C97.1703 26.1582 97.1594 26.0283 97.1594 25.8536V14.3344C97.1594 12.7684 96.8158 11.4074 95.9617 10.4228C95.1094 9.41625 93.9415 8.93938 92.5796 8.93938C91.6835 8.93938 90.8233 9.12238 90.0084 9.48764C89.4629 9.7322 88.8923 10.0979 88.2985 10.566V2.5671C88.2985 2.29452 88.2572 1.91301 88.025 1.57525C87.7464 1.16993 87.3169 1 86.9086 1C86.6251 1 86.3664 1.08352 86.1695 1.16553C85.9614 1.25225 85.7467 1.36987 85.5312 1.50443C85.2799 1.65881 84.9512 1.82493 84.5357 1.9999C84.1641 2.15634 83.6769 2.30469 83.0604 2.43735C82.7982 2.48781 82.4811 2.60804 82.2283 2.8838C81.9577 3.179 81.868 3.53469 81.868 3.84307C81.868 4.15145 81.9577 4.50714 82.2283 4.80234C82.4871 5.08463 82.8132 5.20394 83.079 5.25226L83.0977 5.25566L83.1165 5.25834L83.8608 5.36467C83.868 5.36571 83.8749 5.36675 83.8815 5.36781C83.8856 5.41509 83.8883 5.47352 83.8883 5.54437V25.8536C83.8883 26.0508 83.8714 26.183 83.8524 26.2643C83.8507 26.2719 83.8489 26.2788 83.8473 26.2849C83.7889 26.3052 83.6913 26.3309 83.5418 26.3523L83.6669 27.2283L83.5418 26.3523L83.0456 26.4232ZM91.0184 26.8792C90.8963 27.0123 90.811 27.1578 90.7542 27.3056C90.6974 27.1578 90.6122 27.0123 90.4901 26.8792C90.2313 26.5969 89.9052 26.4776 89.6394 26.4292L89.6054 26.423L89.571 26.4192L88.614 26.3129L88.6062 26.312L88.5984 26.3113C88.4765 26.2997 88.3882 26.2832 88.327 26.2675C88.3107 26.174 88.2985 26.039 88.2985 25.8536V16.3547C88.2985 15.6194 88.4465 14.9834 88.7245 14.4272L88.7246 14.4272L88.7303 14.4155C89.021 13.8147 89.3916 13.3719 89.8322 13.0548L89.8322 13.0548L89.8379 13.0506C90.2821 12.726 90.761 12.5698 91.3036 12.5698C91.8693 12.5698 92.1742 12.7324 92.3679 12.9476C92.5373 13.1359 92.7492 13.632 92.7492 14.7243V25.8536C92.7492 26.0508 92.7323 26.183 92.7133 26.2643C92.7116 26.2719 92.7099 26.2788 92.7082 26.2849C92.6498 26.3052 92.5523 26.3309 92.4027 26.3523L92.5279 27.2283L92.4027 26.3523L91.9065 26.4232L91.8877 26.4258L91.869 26.4292C91.6033 26.4776 91.2771 26.5969 91.0184 26.8792ZM92.7644 26.2617C92.7656 26.261 92.7662 26.2606 92.7662 26.2606C92.7662 26.2607 92.7656 26.261 92.7644 26.2617ZM92.1393 27.2277C92.1394 27.2276 92.1423 27.2276 92.1477 27.2282C92.1419 27.2281 92.1392 27.2278 92.1393 27.2277ZM97.0664 26.2055C97.0664 26.2055 97.0669 26.2058 97.0679 26.2064L97.0664 26.2055ZM83.9035 26.2617C83.9046 26.261 83.9053 26.2606 83.9053 26.2606C83.9053 26.2606 83.9047 26.261 83.9035 26.2617Z" fill="white" stroke="#0D11FF" stroke-width="2"/>
<path d="M76.9146 28.3573L76.9286 28.3732L76.9433 28.3886C77.6863 29.1638 78.6375 29.5473 79.721 29.5473C80.9644 29.5473 82.0099 28.9735 82.8269 27.9844C83.7266 26.9248 84.12 25.3401 84.1937 23.4469L84.1945 23.4274V23.408C84.1945 23.1239 84.1421 22.7258 83.869 22.3845C83.5619 22.0006 83.1317 21.8763 82.7692 21.8763C82.4074 21.8763 82.0216 22.0019 81.7263 22.3199C81.4589 22.6078 81.3578 22.9558 81.3185 23.2311L81.3144 23.2593L81.312 23.2877C81.2214 24.3529 81.0254 24.9475 80.8384 25.228L80.829 25.242L80.8202 25.2563C80.6576 25.5189 80.5493 25.527 80.4653 25.527C80.4306 25.527 80.4023 25.5254 80.3799 25.5232C80.3356 25.3931 80.2957 25.1833 80.2957 24.8612V12.1445H82.0957C82.4086 12.1445 82.8299 12.0789 83.1796 11.773C83.5547 11.4447 83.6628 11.0051 83.6628 10.6482C83.6628 10.2914 83.5547 9.85178 83.1796 9.52352C82.8299 9.21758 82.4086 9.15203 82.0957 9.15203H80.2957V5.72158C80.2957 5.449 80.2545 5.06749 80.0223 4.72973C79.7436 4.32441 79.3141 4.15448 78.9058 4.15448C78.3888 4.15448 78.0201 4.44041 77.8007 4.71136C77.592 4.96921 77.4542 5.28389 77.3546 5.58257L77.3546 5.58256L77.3525 5.58878C77.0197 6.60965 76.6497 7.36149 76.2645 7.88373C75.8684 8.3969 75.3267 8.90388 74.6194 9.3977C74.2399 9.65389 73.8652 10.0896 73.8652 10.7191C73.8652 11.1049 74.009 11.5396 74.407 11.8381C74.7509 12.0961 75.1471 12.1445 75.4323 12.1445H75.8855V24.8257C75.8855 26.2388 76.1556 27.4948 76.9146 28.3573ZM82.1936 23.3886C82.1937 23.3885 82.194 23.3905 82.1942 23.3948C82.1942 23.3952 82.1942 23.3955 82.1942 23.3958C82.1936 23.3912 82.1935 23.3887 82.1936 23.3886ZM82.1123 11.1527C82.1122 11.1527 82.1103 11.1527 82.1068 11.1522C82.1106 11.1524 82.1124 11.1526 82.1123 11.1527ZM82.1123 10.1438C82.1124 10.1439 82.1106 10.1441 82.1068 10.1443C82.1103 10.1438 82.1122 10.1438 82.1123 10.1438ZM78.2933 5.67741C78.2935 5.67727 78.294 5.68034 78.2946 5.68708C78.2935 5.68093 78.2932 5.67756 78.2933 5.67741Z" fill="white" stroke="#0D11FF" stroke-width="2"/>
<path d="M64.13 28.4669L64.1372 28.4715L64.1444 28.476C65.3207 29.2042 66.6915 29.5473 68.2151 29.5473C69.6521 29.5473 70.9741 29.2127 72.1558 28.5257L72.1632 28.5214L72.1706 28.5169C73.3341 27.8134 74.2582 26.8614 74.9328 25.6742C75.6179 24.4683 75.9494 23.1133 75.9494 21.6358C75.9494 20.0799 75.5314 18.6421 74.6972 17.3463C74.0176 16.2404 72.9713 15.2142 71.6133 14.2527C72.5656 13.6066 73.3718 12.8385 74.0214 11.9453L74.0215 11.9453L74.0276 11.9366C74.8963 10.7152 75.3469 9.36871 75.3469 7.91909C75.3469 6.69585 75.0599 5.57116 74.4632 4.57442C73.8797 3.57613 73.0806 2.78929 72.0771 2.22968C71.0637 1.64076 69.9335 1.35443 68.7113 1.35443C67.4456 1.35443 66.2573 1.63878 65.1629 2.21335L65.6277 3.09875L65.1629 2.21335C64.0732 2.78542 63.1797 3.58178 62.4953 4.59462L62.49 4.60241L62.4849 4.61029C61.7991 5.66756 61.4732 6.89007 61.4732 8.23808C61.4732 9.56708 61.8485 10.8777 62.5544 12.1587L62.5544 12.1587L62.5587 12.1664C63.1365 13.1937 63.9472 14.1125 64.9667 14.93C63.7608 15.6916 62.7701 16.5946 62.0168 17.648C61.0612 18.9602 60.5872 20.4668 60.5872 22.132C60.5872 23.3656 60.8904 24.5519 61.4811 25.6796L61.4878 25.6923L61.4948 25.7048C62.1232 26.8251 63.0088 27.7462 64.13 28.4669ZM70.6357 10.626C70.2751 11.4232 69.7453 12.0796 69.0337 12.606C68.0272 11.9544 67.2953 11.3516 66.8047 10.8039C66.2893 10.2046 65.9712 9.64459 65.8076 9.12597C65.6453 8.53222 65.5644 7.92986 65.5644 7.31654C65.5644 6.33345 65.8539 5.63662 66.3647 5.12287C66.9027 4.60457 67.6284 4.31141 68.6404 4.31141C69.5909 4.31141 70.1539 4.62 70.5204 5.13318L70.5299 5.14644L70.5398 5.15939C70.9805 5.73566 71.2557 6.58467 71.2557 7.81276C71.2557 8.82995 71.0492 9.75722 70.644 10.6082L70.6398 10.617L70.6357 10.626ZM70.9007 25.6173L70.8957 25.6225L70.8907 25.6277C70.3154 26.2369 69.4913 26.5903 68.286 26.5903C67.2958 26.5903 66.6356 26.3747 66.2009 26.0525C65.7019 25.6576 65.3427 25.1495 65.1205 24.5014C64.8737 23.7816 64.7492 23.0289 64.7492 22.2383C64.7492 19.7207 65.6668 17.8907 67.4779 16.6094C68.3492 17.1142 69.1144 17.6673 69.7778 18.2664L69.7845 18.2725L69.7913 18.2784C70.4224 18.8281 70.9189 19.4765 71.2856 20.2302L71.2928 20.2449L71.3004 20.2595C71.6566 20.9344 71.8582 21.7936 71.8582 22.8763C71.8582 24.1167 71.5087 24.9919 70.9007 25.6173Z" fill="white" stroke="#0D11FF" stroke-width="2"/>
<path d="M61.125 28.4106C61.1249 28.4106 61.1237 28.4105 61.1214 28.4102L61.125 28.4106ZM61.1543 27.2269C61.1545 27.2271 61.1513 27.2275 61.1443 27.2279C61.1507 27.2269 61.1542 27.2267 61.1543 27.2269ZM53.8991 3.05721C53.8992 3.05704 53.9027 3.05715 53.909 3.05802C53.9021 3.0578 53.8989 3.05737 53.8991 3.05721ZM54.0627 4.09453C54.0626 4.09449 54.0639 4.09398 54.0666 4.0931C54.0641 4.09412 54.0627 4.09456 54.0627 4.09453ZM53.8675 27.2269C53.8677 27.2267 53.8711 27.2269 53.8775 27.2279C53.8705 27.2275 53.8674 27.2271 53.8675 27.2269ZM53.8969 28.4106C53.8968 28.4106 53.898 28.4104 53.9005 28.4102L53.8969 28.4106ZM55.1123 26.2758L55.1123 26.2758L55.1051 26.2765L53.7333 26.4172C53.4596 26.4403 53.0999 26.5263 52.8009 26.8023C52.471 27.1068 52.364 27.5022 52.364 27.8384C52.364 28.2209 52.5111 28.648 52.9056 28.9372C53.2422 29.1841 53.6257 29.2283 53.8957 29.2283H61.1262C61.3961 29.2283 61.7797 29.1841 62.1163 28.9372C62.5107 28.648 62.6578 28.2209 62.6578 27.8384C62.6578 27.5022 62.5508 27.1068 62.2209 26.8023C61.9258 26.5299 61.5716 26.4425 61.2992 26.4181L60.1478 26.2786L60.135 26.277L60.1222 26.2758C59.9631 26.2606 59.8495 26.2384 59.7726 26.2168C59.7608 26.1426 59.7515 26.0357 59.7515 25.889V2.95694C59.7515 2.5542 59.6561 2.06652 59.2887 1.68165C58.913 1.28808 58.4215 1.17719 58.0071 1.17719C57.5406 1.17719 56.9683 1.33616 56.3749 1.54887C55.8531 1.71411 54.9944 1.90384 53.7637 2.11283L53.7553 2.11427L53.7468 2.11585C53.4679 2.16814 53.1298 2.2762 52.8473 2.52336C52.5273 2.80336 52.364 3.18806 52.364 3.59493C52.364 3.98809 52.504 4.45542 52.938 4.76891C53.315 5.04117 53.7486 5.07132 54.0575 5.05416L54.085 5.05263L54.1124 5.04958L55.3884 4.90781L55.3993 4.9066L55.4101 4.90515C55.4376 4.90149 55.4619 4.89917 55.4831 4.89781V25.889C55.4831 26.0466 55.4702 26.152 55.4567 26.2166C55.3885 26.2369 55.2779 26.26 55.1123 26.2758ZM55.521 26.1933C55.5225 26.1925 55.5233 26.1921 55.5233 26.1921C55.5233 26.1922 55.5226 26.1926 55.521 26.1933Z" fill="white" stroke="#0D11FF" stroke-width="2"/>
<path d="M40.576 35.9401C41.1903 35.5475 41.6749 34.8215 42.0852 34.003C42.5522 33.118 43.0445 31.8238 43.5671 30.1613C43.5674 30.1604 43.5676 30.1595 43.5679 30.1586L48.8441 13.6928C49.0965 12.9604 49.301 12.5625 49.432 12.3922L48.6996 11.8289L49.432 12.3922C49.5516 12.2367 49.6836 12.1459 49.8417 12.0932L50.1607 11.9869L49.8465 11.0443L50.1607 11.9869C50.413 11.9028 50.6978 11.7564 50.9227 11.494C51.1625 11.2142 51.2698 10.8771 51.2698 10.542C51.2698 10.185 51.144 9.76221 50.7635 9.46325C50.429 9.20037 50.0427 9.1521 49.7736 9.1521H45.2722C45.018 9.1521 44.6477 9.19206 44.3188 9.42698C43.9279 9.70618 43.776 10.1256 43.776 10.5065C43.776 10.8642 43.9023 11.2243 44.1841 11.5061C44.4404 11.7623 44.7535 11.8821 45.0119 11.9417L45.0307 11.946L45.0497 11.9496L45.794 12.0914L45.8085 12.0942L45.8231 12.0965C45.9055 12.1097 45.9704 12.1245 46.0203 12.1388C46.0195 12.1645 46.0176 12.1955 46.0139 12.2324C45.9986 12.3859 45.9566 12.5973 45.8745 12.8753L43.4912 20.5861L40.9843 12.2392L40.9819 12.2314L40.9795 12.2236C40.9623 12.1697 40.9482 12.1208 40.9366 12.0769C41.0107 12.0605 41.1023 12.0444 41.2139 12.0305L41.781 11.9596L41.795 11.9578L41.809 11.9557C42.0854 11.9132 42.4301 11.8033 42.7096 11.5238C43.0101 11.2233 43.1177 10.8458 43.1177 10.5065C43.1177 10.1255 42.9658 9.70617 42.5749 9.42698C42.246 9.19207 41.8758 9.1521 41.6215 9.1521H35.7733C35.5191 9.1521 35.1488 9.19206 34.8199 9.42698C34.429 9.70618 34.2771 10.1256 34.2771 10.5065C34.2771 10.8642 34.4034 11.2243 34.6852 11.5061C34.9415 11.7623 35.2546 11.8821 35.513 11.9417L35.5273 11.945L35.5418 11.9479L36.0659 12.0527C36.1626 12.0738 36.2181 12.0956 36.2443 12.1082L36.2521 12.116C36.2593 12.1276 36.2816 12.1641 36.3151 12.2384C36.3719 12.3641 36.4395 12.5494 36.5146 12.8068L36.5175 12.8167L36.5206 12.8265L40.3839 25.1255L40.3865 25.1338L40.3893 25.142C40.6611 25.9574 40.8168 26.6078 40.8767 27.107L40.8791 27.1265L40.8822 27.1458C40.9633 27.6529 40.9701 28.1086 40.9142 28.5186L40.9112 28.5408L40.9092 28.5632C40.8712 28.9811 40.7525 29.5163 40.5311 30.1805L40.531 30.1805L40.5273 30.192C40.3032 30.8924 40.12 31.4072 39.9778 31.7618C39.8729 31.5863 39.746 31.4248 39.5995 31.2783C39.1591 30.8379 38.5638 30.7373 38.0771 30.7373C37.3723 30.7373 36.7238 30.9927 36.2505 31.5521C35.8199 32.061 35.624 32.676 35.624 33.3323C35.624 34.1408 35.9005 34.8697 36.4349 35.4754C37.0201 36.1643 37.8158 36.4943 38.7151 36.4943C39.3894 36.4943 40.0216 36.3161 40.576 35.9401ZM49.7885 11.1527C49.7884 11.1528 49.7855 11.1528 49.7801 11.1522C49.786 11.1523 49.7886 11.1526 49.7885 11.1527ZM49.5357 10.0868C49.5357 10.0868 49.535 10.0871 49.5335 10.0876C49.5349 10.087 49.5356 10.0868 49.5357 10.0868ZM45.4472 9.98901C45.4473 9.98898 45.4485 9.9893 45.4507 9.99008L45.4501 9.98995C45.4481 9.98938 45.4472 9.98904 45.4472 9.98901ZM45.2488 11.1532C45.2487 11.153 45.252 11.1526 45.2593 11.1523C45.2526 11.1532 45.249 11.1534 45.2488 11.1532ZM41.6449 11.1532C41.6447 11.1534 41.6411 11.1532 41.6344 11.1523C41.6417 11.1526 41.6451 11.153 41.6449 11.1532ZM35.9483 9.98901C35.9484 9.98897 35.9499 9.9894 35.9527 9.99041C35.9497 9.98956 35.9483 9.98905 35.9483 9.98901ZM35.7499 11.1532C35.7498 11.153 35.7531 11.1526 35.7604 11.1523C35.7537 11.1532 35.7501 11.1534 35.7499 11.1532ZM40.7041 12.1515C40.704 12.1515 40.7049 12.1509 40.7067 12.1499C40.705 12.151 40.7041 12.1515 40.7041 12.1515Z" fill="white" stroke="#0D11FF" stroke-width="2"/>
<path d="M24.7579 28.3329L24.7646 28.3396L24.7714 28.3461C25.6188 29.1621 26.6934 29.5473 27.9106 29.5473C28.9401 29.5473 29.88 29.3092 30.6705 28.7717C31.1441 28.4496 31.5934 28.0397 32.0213 27.5536C32.1548 27.8693 32.3186 28.1678 32.5143 28.4474L32.5213 28.4573L32.5285 28.4671C33.0515 29.1769 33.8019 29.5473 34.6804 29.5473C35.8244 29.5473 36.7634 28.9566 37.4876 28.0301C38.3101 26.9849 38.6222 25.4556 38.6222 23.6561C38.6222 23.3681 38.5769 22.9732 38.3328 22.6275C38.0438 22.218 37.6062 22.0535 37.1969 22.0535C36.8279 22.0535 36.3901 22.1772 36.0752 22.5647C35.8677 22.8201 35.7821 23.1087 35.7513 23.3623V14.0154C35.7513 12.5362 35.4361 11.2402 34.6319 10.306C33.803 9.34311 32.6085 8.93939 31.2424 8.93939C30.3361 8.93939 29.444 9.13845 28.5731 9.51945C27.7207 9.89238 26.9379 10.3969 26.2263 11.0281C25.5114 11.6385 24.9202 12.3357 24.4606 13.1198L24.4605 13.1198L24.455 13.1294C24.0005 13.9248 23.7562 14.7676 23.7562 15.6458C23.7562 16.1308 23.8781 16.6782 24.2972 17.0972C24.7162 17.5163 25.2636 17.6382 25.7486 17.6382C26.4487 17.6382 27.0637 17.3435 27.5767 16.8946L27.5767 16.8946L27.5798 16.8919C28.2164 16.3302 28.5453 15.5245 28.6849 14.6375C28.8877 13.4469 29.189 12.7955 29.4652 12.4913C29.8215 12.1013 30.1131 12.0027 30.3563 12.0027C30.6505 12.0027 30.8307 12.0972 30.9957 12.3283L31.0025 12.3377L31.0095 12.347C31.1598 12.5475 31.3411 13.0695 31.3411 14.1572V17.1086C29.9398 17.5726 28.6697 18.1756 27.5373 18.9225C26.3415 19.7112 25.3689 20.6219 24.6463 21.6641C23.901 22.7149 23.5081 23.87 23.5081 25.1093C23.5081 26.3704 23.9036 27.4785 24.7579 28.3329ZM32.6895 26.7131C32.6895 26.7131 32.6891 26.7136 32.6883 26.7144L32.6895 26.7131ZM37.7372 23.5962C37.7374 23.5963 37.7372 23.5991 37.7365 23.6041C37.7368 23.5986 37.7371 23.5961 37.7372 23.5962ZM36.6194 23.6055C36.6195 23.6053 36.6201 23.6082 36.6207 23.6143C36.6196 23.6087 36.6193 23.6056 36.6194 23.6055ZM29.9255 25.5132C29.5701 25.8009 29.2257 25.9169 28.8676 25.9169C28.5146 25.9169 28.3919 25.8137 28.3161 25.7111C28.1985 25.552 28.06 25.1926 28.06 24.4713C28.06 23.4176 28.3747 22.5689 28.984 21.8669C29.5462 21.2223 30.3202 20.6683 31.3411 20.2248V22.0257C31.3411 22.826 31.1979 23.5096 30.9335 24.0952C30.6549 24.7122 30.314 25.1749 29.9255 25.5132ZM31.3409 19.4299C31.3409 19.4299 31.341 19.4311 31.3411 19.4337L31.3409 19.4299Z" fill="white" stroke="#0D11FF" stroke-width="2"/>
<path d="M3.37041 2.54293C3.3705 2.54287 3.37243 2.54345 3.37597 2.54482C3.3721 2.54367 3.37033 2.54298 3.37041 2.54293ZM3.21237 3.71018C3.21221 3.71003 3.21539 3.70955 3.22236 3.7092C3.216 3.71015 3.21252 3.71033 3.21237 3.71018ZM7.36821 26.3547C7.36724 26.3546 7.36626 26.3544 7.36529 26.3542C6.95663 26.2884 6.82649 26.1741 6.7912 26.1328C6.72073 26.0157 6.63107 25.7494 6.65004 25.2163C6.65005 25.2162 6.65005 25.216 6.65006 25.2159C6.65006 25.2159 6.65006 25.2158 6.65006 25.2158L7.15097 11.3907L11.1258 27.527C11.1928 27.8464 11.3582 28.3389 11.835 28.625C12.0418 28.749 12.3281 28.8738 12.6685 28.8738C13.0089 28.8738 13.2955 28.75 13.5147 28.5947C13.9544 28.3054 14.111 27.8361 14.1757 27.5276L18.1511 11.4692L18.5805 25.9187L18.5808 25.9276L18.5812 25.9365C18.5864 26.0454 18.5849 26.1286 18.5806 26.1901C18.4925 26.2206 18.3669 26.2545 18.1954 26.2875L17.3884 26.4278L17.3615 26.4325L17.3349 26.4386C17.0914 26.4949 16.7894 26.6038 16.5359 26.8377C16.25 27.1016 16.099 27.4585 16.099 27.8384C16.099 28.2209 16.2461 28.6479 16.6406 28.9372C16.9772 29.184 17.3607 29.2282 17.6307 29.2282H24.046C24.3159 29.2282 24.6995 29.184 25.0361 28.9372C25.4305 28.6479 25.5776 28.2209 25.5776 27.8384C25.5776 27.4585 25.4266 27.1016 25.1407 26.8377C24.8873 26.6038 24.5852 26.4948 24.3417 26.4386L24.3151 26.4325L24.2882 26.4278L23.4812 26.2875C23.3249 26.2574 23.2112 26.227 23.1323 26.2006C23.1174 26.1197 23.1034 26.0044 23.0957 25.8478L22.3871 5.01409L22.3872 5.01409L22.3866 5.00052C22.3814 4.89168 22.3829 4.8084 22.3871 4.74689C22.4752 4.71648 22.6009 4.6825 22.7724 4.64955L23.5793 4.50922L23.6062 4.50454L23.6328 4.4984C23.8764 4.4422 24.1784 4.33325 24.4318 4.09931C24.7177 3.8354 24.8687 3.47858 24.8687 3.09868C24.8687 2.71618 24.7216 2.28912 24.3272 1.99986C23.9906 1.75303 23.607 1.7088 23.3371 1.7088H19.1547C18.6878 1.7088 18.2038 1.82278 17.7948 2.1423C17.3861 2.46158 17.1592 2.90259 17.0494 3.35647L13.3535 18.1398L9.81339 3.54028C9.69306 3.02803 9.44419 2.54081 8.9995 2.18975C8.55417 1.83817 8.02094 1.7088 7.49377 1.7088H3.24053C2.9706 1.7088 2.58702 1.75303 2.25042 1.99986C1.85599 2.28912 1.70887 2.71618 1.70887 3.09868C1.70887 3.47858 1.85988 3.8354 2.14578 4.09931C2.39922 4.33325 2.70124 4.4422 2.94478 4.4984L2.97139 4.50454L2.9983 4.50922L3.8135 4.65099C4.01363 4.6858 4.15989 4.72216 4.26191 4.75512C4.26574 4.81576 4.2669 4.89645 4.26195 5.00052L4.26187 5.00051L4.26144 5.01289L3.55258 25.1444C3.55258 25.1445 3.55257 25.1446 3.55257 25.1447C3.55257 25.1448 3.55256 25.1448 3.55256 25.1449C3.53213 25.7152 3.42144 26.0123 3.33001 26.1495L3.32539 26.1564L3.322 26.1617C3.31606 26.1688 3.21457 26.2853 2.76948 26.3538L2.33994 26.4199C2.07016 26.4466 1.72532 26.5361 1.43691 26.8023C1.10702 27.1068 1 27.5021 1 27.8384C1 28.2209 1.14711 28.6479 1.54155 28.9372C1.87815 29.184 2.26173 29.2282 2.53165 29.2282H7.6001C7.87003 29.2282 8.25361 29.184 8.5902 28.9372C8.98464 28.6479 9.13175 28.2209 9.13175 27.8384C9.13175 27.5021 9.02473 27.1068 8.69484 26.8023C8.40643 26.5361 8.06159 26.4466 7.79181 26.4199L7.36821 26.3547ZM18.562 26.3185C18.5619 26.3184 18.5623 26.3169 18.5633 26.3142C18.5625 26.3172 18.562 26.3185 18.562 26.3185ZM17.6025 27.2269C17.6027 27.2267 17.6061 27.2269 17.6125 27.2278C17.6055 27.2275 17.6023 27.227 17.6025 27.2269ZM17.7605 28.3941C17.7605 28.3941 17.7623 28.3934 17.7661 28.3922C17.7625 28.3936 17.7606 28.3942 17.7605 28.3941ZM23.9161 28.3941C23.916 28.3942 23.9141 28.3936 23.9105 28.3922C23.9144 28.3934 23.9161 28.3941 23.9161 28.3941ZM24.0741 27.2269C24.0743 27.227 24.0711 27.2275 24.0641 27.2278C24.0704 27.2269 24.0739 27.2267 24.0741 27.2269ZM23.3652 3.71018C23.3651 3.71033 23.3616 3.71015 23.3553 3.7092C23.3622 3.70955 23.3654 3.71003 23.3652 3.71018ZM23.2072 2.54293C23.2073 2.54298 23.2055 2.54367 23.2016 2.54482C23.2052 2.54345 23.2071 2.54287 23.2072 2.54293ZM22.4058 4.61857C22.4058 4.61863 22.4054 4.6201 22.4044 4.62281C22.4052 4.61988 22.4057 4.61852 22.4058 4.61857ZM4.24407 4.62281C4.2431 4.6201 4.24269 4.61863 4.24273 4.61857C4.24277 4.61852 4.24326 4.61987 4.24407 4.62281ZM2.53287 28.4106C2.53284 28.4105 2.534 28.4104 2.53646 28.4102L2.53287 28.4106ZM2.50349 27.2269C2.50365 27.2267 2.50713 27.2269 2.51348 27.2278C2.50651 27.2275 2.50334 27.227 2.50349 27.2269ZM7.59888 28.4106C7.59885 28.4106 7.59761 28.4105 7.59529 28.4102L7.59888 28.4106ZM7.62826 27.2269C7.62841 27.227 7.62523 27.2275 7.61827 27.2278C7.62463 27.2269 7.62812 27.2267 7.62826 27.2269Z" fill="white" stroke="#0D11FF" stroke-width="2"/>
</svg>
