<svg width="305" height="37" viewBox="0 0 305 37" fill="none" xmlns="http://www.w3.org/2000/svg">
<g filter="url(#filter0_f_9_186)">
<path d="M292.663 32.5434L292.663 32.5433L292.656 32.5555C292.569 32.7109 292.494 32.7944 292.443 32.8355C292.419 32.8548 292.403 32.8622 292.396 32.865C292.395 32.8653 292.394 32.8656 292.394 32.8658C292.337 32.7288 292.279 32.5719 292.22 32.3944C292.123 32.1048 291.962 31.8497 291.744 31.6318C291.442 31.329 291.008 31.2373 290.576 31.2373C289.999 31.2373 289.497 31.4418 289.131 31.8751C288.785 32.2831 288.622 32.7797 288.622 33.3323C288.622 34.0201 288.855 34.6326 289.311 35.1481C289.793 35.7171 290.445 35.9943 291.214 35.9943C291.799 35.9943 292.333 35.8403 292.8 35.5224C293.297 35.2073 293.734 34.5835 294.139 33.7737C294.586 32.9294 295.068 31.668 295.589 30.01C295.589 30.0096 295.589 30.0091 295.589 30.0087L300.868 13.5351C301.124 12.7906 301.351 12.3259 301.534 12.0874L301.138 11.7825L301.534 12.0874C301.712 11.856 301.926 11.7043 302.182 11.6189L302.501 11.5125L302.343 11.0382L302.501 11.5125C302.698 11.4469 302.894 11.3412 303.042 11.1686C303.197 10.9874 303.268 10.7686 303.268 10.542C303.268 10.2985 303.185 10.0384 302.953 9.85641C302.745 9.69248 302.489 9.6521 302.272 9.6521H297.771C297.561 9.6521 297.314 9.68685 297.108 9.83384C296.871 10.003 296.775 10.257 296.775 10.5065C296.775 10.7445 296.857 10.9733 297.036 11.1525C297.203 11.319 297.417 11.407 297.623 11.4545L297.632 11.4567L297.642 11.4585L298.386 11.6003L298.393 11.6016L298.401 11.6028C298.66 11.6443 298.815 11.7053 298.9 11.7601C298.973 11.807 298.98 11.8378 298.983 11.8518L298.988 11.8732L298.994 11.8941C299.042 12.0494 299.036 12.3961 298.852 13.02L295.983 22.3014L293.004 12.383L293.004 12.383L293.002 12.3752C292.926 12.1382 292.896 11.9682 292.892 11.8545C292.89 11.8018 292.894 11.7716 292.897 11.7572C292.919 11.7381 292.968 11.7031 293.069 11.664C293.201 11.6129 293.391 11.5668 293.65 11.5343L293.588 11.0382L293.65 11.5343L294.218 11.4634L294.225 11.4626L294.232 11.4615C294.446 11.4284 294.676 11.3484 294.855 11.1702C295.043 10.9816 295.116 10.7412 295.116 10.5065C295.116 10.257 295.02 10.003 294.783 9.83384C294.577 9.68685 294.33 9.6521 294.12 9.6521H288.272C288.062 9.6521 287.815 9.68685 287.609 9.83384C287.372 10.003 287.276 10.257 287.276 10.5065C287.276 10.7444 287.358 10.9732 287.537 11.1525C287.704 11.319 287.918 11.407 288.124 11.4545L288.131 11.4562L288.138 11.4576L288.666 11.5632C288.943 11.623 289.057 11.7061 289.097 11.7535L289.11 11.768L289.123 11.7816C289.143 11.8016 289.196 11.8708 289.269 12.0326C289.339 12.187 289.414 12.3964 289.493 12.6668L289.493 12.6669L289.496 12.6767L293.359 24.9756L293.359 24.9756L293.362 24.9839C293.64 25.8169 293.806 26.5025 293.872 27.0474L293.873 27.0572L293.874 27.0668C293.962 27.6157 293.972 28.1212 293.908 28.5861L293.907 28.5973L293.906 28.6084C293.863 29.0773 293.733 29.6521 293.504 30.3387L293.504 30.3386L293.502 30.3444C293.121 31.5354 292.841 32.2469 292.663 32.5434Z" fill="white" stroke="white"/>
<path d="M283.762 11.6472V10.471C283.762 10.2812 283.729 10.0477 283.582 9.85207C283.415 9.62942 283.171 9.54572 282.943 9.54572C282.749 9.54572 282.58 9.61698 282.447 9.69672C282.315 9.77567 282.189 9.88131 282.069 10.0003C281.663 10.3604 281.273 10.6601 280.899 10.9019L280.899 10.9017L280.888 10.9097C280.597 11.1096 280.125 11.2824 279.425 11.3952L279.425 11.395L279.413 11.3974C279.196 11.4381 278.975 11.5049 278.797 11.6274C278.599 11.763 278.438 11.9832 278.438 12.2787C278.438 12.5155 278.521 12.7581 278.73 12.9351C278.914 13.0908 279.141 13.148 279.343 13.1656L280.072 13.2699C280.351 13.3097 280.409 13.384 280.41 13.3845L280.434 13.4182L280.458 13.4425C280.461 13.4481 280.476 13.4735 280.491 13.5341C280.513 13.6228 280.529 13.756 280.529 13.9445V25.8536C280.529 26.3204 280.446 26.533 280.386 26.6099L280.386 26.6099L280.381 26.6169C280.381 26.6169 280.373 26.6268 280.35 26.6437C280.325 26.6612 280.288 26.6835 280.232 26.7081C280.121 26.7578 279.959 26.8073 279.736 26.85L279.317 26.9199L279.301 26.9225L279.286 26.9259C279.088 26.9717 278.879 27.0528 278.714 27.2052C278.533 27.3726 278.438 27.5953 278.438 27.8384C278.438 28.0947 278.534 28.3569 278.775 28.5341C278.988 28.69 279.246 28.7283 279.47 28.7283H285.46C285.69 28.7283 285.956 28.6844 286.171 28.5124C286.407 28.3234 286.491 28.0551 286.491 27.803C286.491 27.5866 286.421 27.366 286.247 27.1925C286.085 27.0304 285.879 26.9554 285.691 26.9212L285.674 26.9181L285.657 26.9162L284.7 26.8098L284.7 26.8098L284.692 26.809C284.265 26.7684 284.105 26.6696 284.057 26.6215C284.003 26.5255 283.939 26.2982 283.939 25.8536V17.6307C283.939 16.5816 284.053 15.6612 284.274 14.8642C284.523 14.0512 284.819 13.4396 285.148 13.007L285.149 13.0071L285.155 12.9981C285.489 12.5389 285.76 12.4242 285.956 12.4242C286.196 12.4242 286.251 12.4901 286.265 12.5078L286.274 12.5208L286.285 12.5332C286.386 12.6506 286.477 12.8023 286.555 12.996L286.563 13.0153L286.572 13.0339C286.708 13.3063 286.873 13.5549 287.068 13.7776L287.09 13.8027L287.115 13.8246C287.432 14.1016 287.855 14.1964 288.295 14.1964C288.864 14.1964 289.378 14.0227 289.715 13.5816C290.036 13.1915 290.177 12.7076 290.177 12.1723C290.177 11.485 289.945 10.8655 289.497 10.3309C288.998 9.71054 288.255 9.43939 287.374 9.43939C285.928 9.43939 284.728 10.2326 283.762 11.6472Z" fill="white" stroke="white"/>
<path d="M268.351 24.3979L268.351 24.3979L268.355 24.4075C268.921 25.8355 269.684 26.9743 270.66 27.7956C271.644 28.6247 272.773 29.0473 274.03 29.0473C275.342 29.0473 276.474 28.5822 277.396 27.6603L277.396 27.6604L277.401 27.6553C278.334 26.6959 278.959 25.0976 279.342 22.9648L279.343 22.9577L279.345 22.9505C279.384 22.6879 279.393 22.3921 279.279 22.1395C279.217 22.0011 279.117 21.8732 278.97 21.7842C278.826 21.697 278.671 21.6675 278.531 21.6675C278.316 21.6675 278.098 21.7289 277.916 21.8832C277.74 22.0323 277.641 22.2307 277.588 22.4258L277.586 22.4345L277.584 22.4432C277.235 23.9309 276.797 24.907 276.314 25.4505C275.848 25.9756 275.254 26.2397 274.491 26.2397C273.585 26.2397 272.794 25.7571 272.122 24.6087C271.456 23.4702 271.092 21.6979 271.092 19.2256C271.092 19.0152 271.139 18.9507 271.146 18.9423C271.149 18.9396 271.153 18.9345 271.169 18.9283C271.189 18.9208 271.229 18.9104 271.301 18.9104H278.035C278.45 18.9104 278.836 18.7661 279.098 18.4199C279.34 18.1 279.421 17.6795 279.421 17.2408C279.421 14.6358 278.984 12.6437 278.009 11.3755C277.068 10.0971 275.799 9.43939 274.242 9.43939C272.957 9.43939 271.793 9.8892 270.764 10.7635C269.742 11.6321 268.955 12.8186 268.388 14.2972C267.818 15.7835 267.54 17.4885 267.54 19.4029C267.54 21.2691 267.806 22.937 268.351 24.3979ZM271.159 17.0193L271.159 17.0193L271.16 17.0052C271.346 15.0794 271.736 13.6491 272.299 12.6741C272.881 11.7054 273.521 11.3255 274.207 11.3255C274.481 11.3255 274.703 11.4021 274.894 11.5493C275.092 11.7019 275.283 11.9512 275.449 12.3354C275.789 13.1202 275.975 14.2477 275.975 15.7522C275.975 16.2708 275.851 16.5671 275.689 16.735C275.532 16.8992 275.259 17.0243 274.774 17.0243H271.194C271.181 17.0243 271.169 17.024 271.158 17.0234C271.158 17.0221 271.159 17.0207 271.159 17.0193Z" fill="white" stroke="white"/>
<path d="M262.249 28.027L262.256 28.0349L262.263 28.0426C262.906 28.7138 263.725 29.0473 264.68 29.0473C265.751 29.0473 266.663 28.5595 267.403 27.6634C268.195 26.7317 268.581 25.2836 268.653 23.4274L268.653 23.4177V23.408C268.653 23.1773 268.61 22.9118 268.438 22.6969C268.249 22.4606 267.98 22.3763 267.728 22.3763C267.482 22.3763 267.238 22.4598 267.052 22.6601C266.88 22.8455 266.804 23.0815 266.772 23.3018L266.77 23.3159L266.769 23.3301C266.677 24.418 266.472 25.117 266.213 25.5053L266.209 25.5124L266.204 25.5195C265.969 25.8989 265.714 26.027 265.424 26.027C265.089 26.027 264.984 25.9308 264.938 25.8561C264.829 25.6485 264.755 25.3292 264.755 24.8612V11.6445H267.055C267.306 11.6445 267.587 11.591 267.809 11.3967C268.044 11.1912 268.122 10.9094 268.122 10.6482C268.122 10.3871 268.044 10.1053 267.809 9.8998C267.587 9.70548 267.306 9.65203 267.055 9.65203H264.755V5.72158C264.755 5.49077 264.718 5.22912 264.569 5.01298C264.397 4.76307 264.134 4.65448 263.865 4.65448C263.547 4.65448 263.308 4.82846 263.148 5.02596C262.994 5.21691 262.879 5.46728 262.788 5.74068L262.788 5.74068L262.787 5.74379C262.443 6.79785 262.051 7.60495 261.623 8.18494C261.188 8.74852 260.605 9.2914 259.861 9.81006C259.565 10.0086 259.324 10.3093 259.324 10.7191C259.324 10.9829 259.42 11.2534 259.666 11.4381C259.885 11.6025 260.154 11.6445 260.391 11.6445H261.345V24.8257C261.345 26.1939 261.609 27.3004 262.249 28.027Z" fill="white" stroke="white"/>
<path d="M249.415 24.3979L249.415 24.3979L249.419 24.4075C249.985 25.8355 250.748 26.9743 251.724 27.7956C252.708 28.6247 253.837 29.0473 255.094 29.0473C256.406 29.0473 257.538 28.5822 258.46 27.6603L258.46 27.6604L258.465 27.6553C259.398 26.6959 260.023 25.0976 260.406 22.9648L260.407 22.9577L260.409 22.9505C260.448 22.6879 260.457 22.3921 260.343 22.1395C260.281 22.0011 260.181 21.8732 260.034 21.7842C259.89 21.697 259.735 21.6675 259.595 21.6675C259.38 21.6675 259.162 21.7289 258.98 21.8832C258.803 22.0323 258.705 22.2307 258.652 22.4258L258.65 22.4345L258.647 22.4432C258.299 23.9309 257.861 24.907 257.378 25.4505C256.912 25.9756 256.318 26.2397 255.555 26.2397C254.648 26.2397 253.858 25.7571 253.186 24.6087C252.52 23.4702 252.156 21.6979 252.156 19.2256C252.156 19.0152 252.203 18.9507 252.21 18.9423C252.213 18.9396 252.217 18.9345 252.233 18.9283C252.253 18.9208 252.293 18.9104 252.365 18.9104H259.099C259.514 18.9104 259.9 18.7661 260.162 18.4199C260.404 18.1 260.485 17.6795 260.485 17.2408C260.485 14.6358 260.048 12.6437 259.073 11.3755C258.132 10.0971 256.863 9.43939 255.306 9.43939C254.021 9.43939 252.857 9.8892 251.828 10.7635C250.806 11.6321 250.019 12.8186 249.452 14.2972C248.882 15.7835 248.604 17.4885 248.604 19.4029C248.604 21.2691 248.87 22.937 249.415 24.3979ZM252.223 17.0193L252.223 17.0193L252.224 17.0052C252.41 15.0794 252.8 13.6491 253.363 12.6741C253.945 11.7054 254.585 11.3255 255.271 11.3255C255.545 11.3255 255.767 11.4021 255.958 11.5493C256.156 11.7019 256.347 11.9512 256.513 12.3354C256.853 13.1202 257.039 14.2477 257.039 15.7522C257.039 16.2708 256.915 16.5671 256.753 16.735C256.596 16.8992 256.323 17.0243 255.838 17.0243H252.258C252.245 17.0243 252.233 17.024 252.222 17.0234C252.222 17.0221 252.223 17.0207 252.223 17.0193Z" fill="white" stroke="white"/>
<path d="M225.661 26.9199L225.645 26.9225L225.63 26.9259C225.432 26.9717 225.223 27.0528 225.058 27.2052C224.877 27.3726 224.782 27.5953 224.782 27.8384C224.782 28.0947 224.878 28.3569 225.119 28.5341C225.332 28.69 225.59 28.7283 225.814 28.7283H231.804C232.034 28.7283 232.3 28.6844 232.515 28.5124C232.751 28.3234 232.835 28.0551 232.835 27.803C232.835 27.5866 232.765 27.366 232.591 27.1925C232.429 27.0304 232.223 26.9554 232.035 26.9212L232.018 26.9181L232.001 26.9162L231.044 26.8098L231.044 26.8098L231.036 26.809C230.609 26.7684 230.449 26.6696 230.401 26.6215C230.347 26.5255 230.283 26.2982 230.283 25.8536V16.3547C230.283 15.5499 230.446 14.8361 230.762 14.2036L230.762 14.2036L230.765 14.1978C231.09 13.5264 231.503 13.014 231.997 12.6432L231.997 12.6432L232 12.6413C232.508 12.2552 233.052 12.0698 233.647 12.0698C234.232 12.0698 234.639 12.2584 234.932 12.6025L234.936 12.6079L234.941 12.6132C235.238 12.9436 235.451 13.5992 235.451 14.7243V25.8536C235.451 26.3204 235.368 26.533 235.308 26.6099L235.297 26.6244L235.286 26.6396C235.272 26.6607 235.151 26.7793 234.675 26.8473L234.179 26.9181L234.169 26.9195L234.16 26.9212C233.962 26.9572 233.75 27.0404 233.588 27.217C233.42 27.4001 233.359 27.6252 233.359 27.8384C233.359 28.0819 233.443 28.342 233.674 28.524C233.883 28.6879 234.138 28.7283 234.356 28.7283H240.381C240.59 28.7283 240.839 28.6814 241.038 28.4994C241.245 28.3099 241.306 28.0572 241.306 27.8384C241.306 27.6252 241.245 27.4001 241.077 27.217C240.916 27.0404 240.704 26.9572 240.506 26.9212L240.495 26.9192L240.484 26.9177L239.704 26.8114C239.467 26.7791 239.291 26.7358 239.167 26.6887C239.061 26.6485 239.012 26.613 238.993 26.5958C238.935 26.5085 238.861 26.2944 238.861 25.8536V16.3547C238.861 15.5499 239.023 14.8361 239.34 14.2036L239.34 14.2036L239.342 14.1978C239.667 13.5264 240.08 13.014 240.575 12.6432L240.575 12.6432L240.577 12.6413C241.085 12.2552 241.63 12.0698 242.224 12.0698C242.81 12.0698 243.216 12.2584 243.509 12.6025L243.514 12.6079L243.518 12.6132C243.816 12.9436 244.028 13.5992 244.028 14.7243V25.8536C244.028 26.3204 243.945 26.533 243.885 26.6099C243.852 26.6531 243.681 26.7774 243.152 26.8464L243.152 26.8464L243.146 26.8473L242.65 26.9181L242.64 26.9195L242.631 26.9212C242.433 26.9572 242.221 27.0404 242.059 27.217C241.891 27.4001 241.83 27.6252 241.83 27.8384C241.83 28.0819 241.914 28.342 242.146 28.524C242.354 28.6879 242.609 28.7283 242.827 28.7283H248.887C249.096 28.7283 249.346 28.6814 249.544 28.4994C249.751 28.3099 249.813 28.0572 249.813 27.8384C249.813 27.6252 249.752 27.4001 249.584 27.217C249.422 27.0404 249.21 26.9572 249.012 26.9212L249.001 26.9192L248.99 26.9177L248.214 26.8118C248.213 26.8117 248.213 26.8117 248.212 26.8116C247.795 26.7519 247.613 26.6593 247.548 26.6074C247.496 26.5041 247.438 26.2777 247.438 25.8536V14.3344C247.438 12.8329 247.108 11.6102 246.364 10.7517C245.653 9.88057 244.708 9.43939 243.571 9.43939C242.76 9.43939 241.968 9.62295 241.197 9.98251C240.42 10.3452 239.537 10.9995 238.552 11.912L238.546 11.9184L238.539 11.9251C238.515 11.949 238.495 11.9647 238.48 11.975C238.478 11.9718 238.477 11.9683 238.476 11.9645C238.188 11.1567 237.73 10.5193 237.085 10.0947C236.476 9.65525 235.773 9.43939 234.994 9.43939C234.183 9.43939 233.381 9.62277 232.59 9.97992L232.59 9.97988L232.585 9.98251C231.85 10.3256 231.022 10.9386 230.106 11.7908V10.471C230.106 10.2812 230.073 10.0477 229.926 9.85207C229.759 9.62942 229.515 9.54572 229.287 9.54572C229.093 9.54572 228.924 9.61698 228.791 9.69672C228.659 9.77567 228.533 9.88131 228.413 10.0003C228.007 10.3604 227.617 10.6601 227.243 10.9019L227.243 10.9017L227.232 10.9097C226.941 11.1096 226.469 11.2824 225.769 11.3952L225.769 11.395L225.757 11.3974C225.54 11.4381 225.319 11.5049 225.14 11.6274C224.943 11.763 224.782 11.9832 224.782 12.2787C224.782 12.5155 224.865 12.7581 225.074 12.9351C225.258 13.0908 225.485 13.148 225.687 13.1656L226.416 13.2699C226.695 13.3097 226.753 13.384 226.754 13.3845L226.778 13.4182L226.802 13.4425C226.805 13.4481 226.82 13.4735 226.835 13.5341C226.857 13.6228 226.873 13.756 226.873 13.9445V25.8536C226.873 26.3204 226.79 26.533 226.73 26.6099L226.73 26.6099L226.725 26.6169C226.725 26.6169 226.717 26.6268 226.694 26.6437C226.669 26.6612 226.632 26.6835 226.576 26.7081C226.465 26.7578 226.303 26.8073 226.08 26.85L225.661 26.9199Z" fill="white" stroke="white"/>
<path d="M214.696 24.3979L214.695 24.3979L214.699 24.4075C215.266 25.8355 216.029 26.9743 217.004 27.7956C217.989 28.6247 219.118 29.0473 220.374 29.0473C221.687 29.0473 222.819 28.5822 223.741 27.6603L223.741 27.6604L223.745 27.6553C224.678 26.6959 225.303 25.0976 225.687 22.9648L225.688 22.9577L225.689 22.9505C225.728 22.6879 225.738 22.3921 225.624 22.1395C225.562 22.0011 225.461 21.8732 225.314 21.7842C225.17 21.697 225.016 21.6675 224.876 21.6675C224.661 21.6675 224.443 21.7289 224.26 21.8832C224.084 22.0323 223.986 22.2307 223.932 22.4258L223.93 22.4345L223.928 22.4432C223.579 23.9309 223.142 24.907 222.659 25.4505C222.192 25.9756 221.599 26.2397 220.835 26.2397C219.929 26.2397 219.138 25.7571 218.467 24.6087C217.801 23.4702 217.436 21.6979 217.436 19.2256C217.436 19.0152 217.483 18.9507 217.491 18.9423C217.493 18.9396 217.498 18.9345 217.514 18.9283C217.533 18.9208 217.574 18.9104 217.645 18.9104H224.379C224.795 18.9104 225.18 18.7661 225.443 18.4199C225.685 18.1 225.765 17.6795 225.765 17.2408C225.765 14.6358 225.329 12.6437 224.354 11.3755C223.412 10.0971 222.144 9.43939 220.587 9.43939C219.302 9.43939 218.137 9.8892 217.109 10.7635C216.087 11.6321 215.299 12.8186 214.733 14.2972C214.163 15.7835 213.884 17.4885 213.884 19.4029C213.884 21.2691 214.151 22.937 214.696 24.3979ZM217.503 17.0193L217.503 17.0193L217.505 17.0052C217.69 15.0794 218.081 13.6491 218.643 12.6741C219.225 11.7054 219.865 11.3255 220.551 11.3255C220.826 11.3255 221.048 11.4021 221.239 11.5493C221.436 11.7019 221.628 11.9512 221.794 12.3354C222.133 13.1202 222.32 14.2477 222.32 15.7522C222.32 16.2708 222.195 16.5671 222.034 16.735C221.876 16.8992 221.603 17.0243 221.119 17.0243H217.539C217.525 17.0243 217.513 17.024 217.503 17.0234C217.503 17.0221 217.503 17.0207 217.503 17.0193Z" fill="white" stroke="white"/>
<path d="M203.166 27.3004L203.169 27.3033C204.584 28.4653 206.232 29.0473 208.094 29.0473C209.248 29.0473 210.234 28.9518 211.042 28.751C211.85 28.5791 212.562 28.3431 213.174 28.0375L213.18 28.0341L213.187 28.0306C213.403 27.9145 213.589 27.7553 213.721 27.5434C213.851 27.332 213.91 27.096 213.911 26.8528L214.052 21.1165L214.052 21.1165V21.1041C214.052 20.8742 214.012 20.6275 213.875 20.4161C213.727 20.187 213.502 20.0551 213.252 20.0097L213.252 20.0095L213.239 20.0074C212.987 19.9686 212.708 20.0042 212.475 20.1933C212.259 20.3688 212.156 20.6183 212.108 20.8529L211.684 22.5802L211.684 22.5836C211.238 24.4619 210.707 25.6172 210.151 26.1735L210.151 26.1734L210.144 26.1799C209.616 26.7283 208.903 27.0194 207.952 27.0194C207.132 27.0194 206.31 26.6438 205.477 25.7906C204.677 24.9457 203.987 23.6564 203.433 21.8797C202.908 20.1215 202.64 17.9409 202.64 15.3268C202.64 11.4853 203.181 8.62857 204.21 6.70266C205.274 4.73397 206.519 3.8823 207.917 3.8823C208.663 3.8823 209.299 4.16918 209.849 4.78009L209.849 4.78014L209.855 4.78677C210.429 5.40186 210.983 6.57691 211.475 8.40351L211.475 8.40398L211.827 9.70723C211.877 9.9178 211.972 10.1325 212.149 10.2969C212.338 10.4726 212.572 10.5457 212.808 10.5457C213.084 10.5457 213.356 10.4384 213.536 10.1834C213.693 9.96033 213.733 9.68759 213.733 9.44316H213.734L213.733 9.4333L213.627 4.05034C213.625 3.54585 213.391 3.13447 212.954 2.87952L212.94 2.8714L212.925 2.8642C212.318 2.56065 211.632 2.32449 210.87 2.15193C210.089 1.9512 209.197 1.85443 208.2 1.85443C206.449 1.85443 204.851 2.44169 203.421 3.59544C202.017 4.72335 200.909 6.31194 200.082 8.33209L200.082 8.33209L200.081 8.33496C199.272 10.3444 198.875 12.6788 198.875 15.3268C198.875 18.0627 199.235 20.4614 199.967 22.5128L199.967 22.5128L199.97 22.5196C200.726 24.543 201.786 26.1462 203.166 27.3004Z" fill="white" stroke="white"/>
<path d="M187.585 26.9181L187.576 26.9195L187.567 26.9212C187.369 26.9571 187.157 27.0404 186.995 27.217C186.827 27.4001 186.766 27.6252 186.766 27.8384C186.766 28.0572 186.828 28.3098 187.035 28.4994C187.233 28.6814 187.483 28.7283 187.691 28.7283H194C194.209 28.7283 194.459 28.6814 194.657 28.4994C194.864 28.3098 194.926 28.0572 194.926 27.8384C194.926 27.6252 194.865 27.4001 194.697 27.217C194.535 27.0404 194.323 26.9571 194.125 26.9212L194.113 26.9189L194.101 26.9173L193.288 26.8114C192.872 26.7516 192.691 26.6593 192.626 26.6073C192.574 26.5041 192.516 26.2777 192.516 25.8536V2.5671C192.516 2.33629 192.479 2.07464 192.33 1.8585C192.158 1.60859 191.895 1.5 191.626 1.5C191.437 1.5 191.248 1.55653 191.079 1.62707C190.904 1.69999 190.714 1.80314 190.512 1.92947C190.237 2.09859 189.875 2.27523 189.42 2.4573C188.982 2.63245 188.445 2.79008 187.806 2.9274C187.611 2.96422 187.403 3.04763 187.243 3.22167C187.075 3.40472 187.014 3.62982 187.014 3.84307C187.014 4.05632 187.075 4.28142 187.243 4.46447C187.405 4.64107 187.617 4.72435 187.815 4.76033L187.827 4.76257L187.839 4.76419L188.655 4.87052L188.669 4.87241L188.684 4.87345C188.813 4.88268 188.894 4.90422 188.942 4.92415C188.971 4.93662 188.983 4.94642 188.986 4.94953L188.999 4.96688L189.013 4.98367C189.031 5.00478 189.105 5.14063 189.105 5.54437V25.8536C189.105 26.2866 189 26.4696 188.916 26.5452C188.785 26.6634 188.532 26.7829 188.082 26.8472L187.585 26.9181Z" fill="white" stroke="white"/>
<path d="M175.698 27.9793L175.698 27.9794L175.704 27.9859C176.447 28.7011 177.392 29.0473 178.497 29.0473C179.449 29.0473 180.285 28.8279 180.975 28.3582C181.614 27.9241 182.22 27.3038 182.799 26.5162C182.938 27.1283 183.173 27.6788 183.51 28.1606L183.51 28.1607L183.517 28.1705C183.944 28.7499 184.544 29.0473 185.267 29.0473C186.217 29.0473 187.023 28.563 187.68 27.7219C188.399 26.8093 188.708 25.4184 188.708 23.6561C188.708 23.4117 188.668 23.1389 188.511 22.9158C188.331 22.6609 188.059 22.5535 187.783 22.5535C187.522 22.5535 187.245 22.639 187.049 22.88C186.87 23.1012 186.822 23.3768 186.822 23.6206C186.822 24.5904 186.691 25.1787 186.509 25.4813C186.289 25.8185 186.139 25.8498 186.082 25.8498C186.045 25.8498 186.036 25.8421 186.033 25.8407C186.028 25.8373 186.003 25.8188 185.971 25.754C185.899 25.6104 185.837 25.3318 185.837 24.8612V14.0154C185.837 12.5965 185.534 11.439 184.839 10.6322C184.132 9.81109 183.096 9.43939 181.829 9.43939C180.997 9.43939 180.173 9.62162 179.36 9.97753C178.555 10.3294 177.816 10.8061 177.141 11.4053C176.464 11.9822 175.909 12.638 175.478 13.3727L175.478 13.3727L175.475 13.3775C175.059 14.106 174.842 14.8641 174.842 15.6458C174.842 16.0537 174.945 16.4514 175.237 16.7437C175.529 17.0359 175.927 17.1382 176.335 17.1382C176.886 17.1382 177.388 16.9082 177.834 16.5183L177.834 16.5183L177.835 16.517C178.354 16.0588 178.649 15.3782 178.778 14.5567C178.985 13.3351 179.307 12.5666 179.682 12.1546C180.108 11.6879 180.526 11.5027 180.942 11.5027C181.397 11.5027 181.729 11.674 181.989 12.0376L181.989 12.0377L181.996 12.047C182.248 12.3836 182.427 13.0462 182.427 14.1572V17.3826C182.427 17.4179 182.423 17.4384 182.42 17.4483C182.417 17.4572 182.415 17.4597 182.415 17.4598C182.415 17.4602 182.411 17.4652 182.398 17.4733C182.385 17.482 182.36 17.4947 182.319 17.5072L182.319 17.5072L182.316 17.5084C180.859 17.9697 179.552 18.5792 178.399 19.3399C177.246 20.1005 176.322 20.9694 175.642 21.9512C174.95 22.9256 174.594 23.9816 174.594 25.1093C174.594 26.2597 174.951 27.2332 175.698 27.9793ZM182.353 19.5188L182.353 19.5188L182.361 19.5157C182.385 19.5064 182.407 19.4987 182.427 19.4924V22.0257C182.427 22.8866 182.273 23.6419 181.975 24.3009C181.671 24.9759 181.287 25.5025 180.833 25.8961C180.395 26.2528 179.94 26.4169 179.454 26.4169C178.976 26.4169 178.689 26.2634 178.5 26.0083C178.291 25.725 178.146 25.2395 178.146 24.4713C178.146 23.3064 178.498 22.3386 179.193 21.5387C179.928 20.6957 180.972 20.0169 182.353 19.5188Z" fill="white" stroke="white"/>
<path d="M159.923 26.9199L159.907 26.9225L159.892 26.9259C159.694 26.9717 159.485 27.0528 159.32 27.2052C159.139 27.3726 159.044 27.5953 159.044 27.8384C159.044 28.0947 159.14 28.3569 159.381 28.5341C159.594 28.69 159.852 28.7283 160.076 28.7283H166.066C166.296 28.7283 166.562 28.6844 166.777 28.5124C167.013 28.3234 167.097 28.0551 167.097 27.803C167.097 27.5866 167.027 27.366 166.853 27.1925C166.691 27.0304 166.485 26.9554 166.297 26.9212L166.28 26.9181L166.263 26.9162L165.306 26.8098L165.306 26.8098L165.298 26.809C164.871 26.7684 164.711 26.6696 164.663 26.6215C164.609 26.5255 164.545 26.2982 164.545 25.8536V16.3547C164.545 15.5499 164.708 14.8361 165.024 14.2036L165.024 14.2036L165.027 14.1978C165.35 13.5311 165.771 13.0202 166.287 12.649L166.287 12.649L166.29 12.6469C166.819 12.2601 167.401 12.0698 168.05 12.0698C168.723 12.0698 169.177 12.2692 169.486 12.6132C169.784 12.9436 169.996 13.5992 169.996 14.7243V25.8536C169.996 26.3204 169.913 26.533 169.853 26.6099L169.842 26.6244L169.832 26.6396C169.818 26.6607 169.696 26.7793 169.22 26.8473L168.724 26.9181L168.715 26.9195L168.705 26.9212C168.507 26.9572 168.296 27.0404 168.134 27.217C167.966 27.4001 167.905 27.6252 167.905 27.8384C167.905 28.0819 167.988 28.342 168.22 28.524C168.429 28.6879 168.684 28.7283 168.901 28.7283H174.856C175.064 28.7283 175.314 28.6814 175.512 28.4994C175.719 28.3099 175.781 28.0572 175.781 27.8384C175.781 27.6252 175.72 27.4001 175.552 27.217C175.39 27.0404 175.178 26.9572 174.98 26.9212L174.97 26.9192L174.959 26.9177L174.182 26.8118C174.181 26.8117 174.181 26.8117 174.18 26.8116C173.764 26.7519 173.582 26.6593 173.516 26.6074C173.464 26.5041 173.406 26.2777 173.406 25.8536V14.3344C173.406 12.8309 173.075 11.6068 172.329 10.7482C171.588 9.8722 170.594 9.43939 169.397 9.43939C168.523 9.43939 167.685 9.61992 166.888 9.97992L166.888 9.97988L166.882 9.98251C166.13 10.3337 165.29 10.9571 164.368 11.8218V10.471C164.368 10.2812 164.335 10.0477 164.188 9.85207C164.021 9.62942 163.777 9.54572 163.549 9.54572C163.355 9.54572 163.186 9.61698 163.053 9.69672C162.921 9.77567 162.795 9.88131 162.675 10.0003C162.269 10.3604 161.879 10.6601 161.505 10.9019L161.505 10.9017L161.494 10.9097C161.203 11.1096 160.731 11.2824 160.031 11.3952L160.031 11.395L160.019 11.3974C159.802 11.4381 159.581 11.5049 159.402 11.6274C159.205 11.763 159.044 11.9832 159.044 12.2787C159.044 12.5155 159.127 12.7581 159.336 12.9351C159.52 13.0908 159.747 13.148 159.949 13.1656L160.678 13.2699C160.957 13.3097 161.015 13.384 161.016 13.3845L161.04 13.4182L161.064 13.4425C161.067 13.4481 161.082 13.4735 161.097 13.5341C161.119 13.6228 161.135 13.756 161.135 13.9445V25.8536C161.135 26.3204 161.052 26.533 160.992 26.6099L160.992 26.6099L160.987 26.6169C160.987 26.6169 160.979 26.6268 160.956 26.6437C160.931 26.6612 160.894 26.6835 160.838 26.7081C160.727 26.7578 160.565 26.8073 160.342 26.85L159.923 26.9199Z" fill="white" stroke="white"/>
<path d="M149.567 27.7185L149.567 27.7187L149.577 27.7271C150.631 28.6013 151.83 29.0473 153.157 29.0473C154.484 29.0473 155.683 28.6013 156.737 27.7271L156.737 27.7271L156.742 27.7225C157.785 26.8325 158.584 25.6366 159.152 24.1574C159.745 22.6735 160.037 21.0273 160.037 19.2256C160.037 17.4228 159.744 15.786 159.149 14.3232C158.558 12.8695 157.748 11.689 156.709 10.8016C155.677 9.89985 154.487 9.43939 153.157 9.43939C151.847 9.43939 150.658 9.90187 149.607 10.7996C148.567 11.6873 147.756 12.8684 147.164 14.3232C146.569 15.786 146.277 17.4228 146.277 19.2256C146.277 21.0287 146.569 22.676 147.163 24.1608C147.753 25.6362 148.551 26.8295 149.567 27.7185ZM156.343 19.2256C156.343 22.0165 156.036 24.042 155.463 25.3521C155.179 26.0016 154.841 26.4505 154.466 26.7365C154.098 27.0173 153.669 27.1612 153.157 27.1612C152.645 27.1612 152.215 27.0173 151.847 26.7365C151.472 26.4505 151.134 26.0016 150.85 25.3521C150.278 24.042 149.971 22.0165 149.971 19.2256C149.971 16.4467 150.278 14.4304 150.85 13.1264C151.134 12.4801 151.472 12.0333 151.846 11.7486C152.215 11.4689 152.644 11.3255 153.157 11.3255C153.669 11.3255 154.099 11.4689 154.467 11.7486C154.842 12.0333 155.18 12.4801 155.463 13.1264C156.036 14.4304 156.343 16.4467 156.343 19.2256Z" fill="white" stroke="white"/>
<path d="M141.887 6.59438L141.893 6.60068L141.899 6.60678C142.346 7.05391 142.898 7.28488 143.528 7.28488C144.159 7.28488 144.706 7.0528 145.134 6.59438L144.769 6.25322L145.134 6.59438C145.562 6.13593 145.765 5.55992 145.765 4.90636C145.765 4.2565 145.564 3.6865 145.128 3.24754C144.701 2.79326 144.156 2.56329 143.528 2.56329C142.898 2.56329 142.346 2.79426 141.899 3.24139L142.223 3.56609L141.899 3.24139C141.459 3.68118 141.256 4.25347 141.256 4.90636C141.256 5.55992 141.459 6.13592 141.887 6.59438ZM140.398 26.9199L140.383 26.9224L140.368 26.9259C140.169 26.9717 139.96 27.0528 139.795 27.2052C139.614 27.3726 139.519 27.5953 139.519 27.8384C139.519 28.0946 139.615 28.3569 139.857 28.534C140.069 28.6899 140.327 28.7283 140.551 28.7283H146.47C146.701 28.7283 146.966 28.6844 147.181 28.5124C147.417 28.3234 147.502 28.0551 147.502 27.803C147.502 27.5866 147.431 27.366 147.258 27.1925C147.096 27.0304 146.889 26.9554 146.701 26.9212L146.686 26.9185L146.671 26.9167L145.785 26.8103L145.784 26.8102C145.444 26.7702 145.35 26.674 145.327 26.6395C145.271 26.556 145.198 26.329 145.198 25.8536V10.471C145.198 10.2812 145.165 10.0476 145.018 9.85203C144.851 9.62939 144.607 9.5457 144.379 9.5457C144.185 9.5457 144.015 9.61695 143.882 9.6967C143.751 9.77563 143.625 9.88125 143.505 10.0002C143.105 10.3539 142.699 10.6495 142.285 10.889C141.907 11.1082 141.38 11.2829 140.684 11.3951L140.684 11.395L140.671 11.3973C140.454 11.4381 140.233 11.5049 140.055 11.6274C139.858 11.763 139.697 11.9832 139.697 12.2786C139.697 12.5154 139.78 12.7581 139.989 12.935C140.173 13.0908 140.399 13.1479 140.601 13.1656L141.331 13.2698C141.61 13.3097 141.668 13.384 141.668 13.3845L141.692 13.4181L141.717 13.4425C141.72 13.4481 141.734 13.4735 141.749 13.5341C141.772 13.6227 141.788 13.756 141.788 13.9445V25.8536C141.788 26.2921 141.714 26.5063 141.656 26.5944C141.655 26.5953 141.654 26.5962 141.653 26.5972C141.645 26.6035 141.633 26.6122 141.616 26.6227C141.581 26.6441 141.529 26.6696 141.456 26.6968C141.31 26.7519 141.103 26.8042 140.826 26.8485L140.823 26.849L140.398 26.9199Z" fill="white" stroke="white"/>
<path d="M134.512 28.027L134.519 28.0349L134.526 28.0426C135.17 28.7138 135.988 29.0473 136.943 29.0473C138.014 29.0473 138.926 28.5595 139.666 27.6634C140.458 26.7317 140.844 25.2836 140.916 23.4274L140.917 23.4177V23.408C140.917 23.1773 140.873 22.9118 140.701 22.6969C140.512 22.4606 140.243 22.3763 139.991 22.3763C139.745 22.3763 139.501 22.4598 139.315 22.6601C139.143 22.8454 139.067 23.0814 139.036 23.3018L139.034 23.3159L139.032 23.3301C138.94 24.418 138.735 25.117 138.477 25.5053L138.472 25.5124L138.467 25.5195C138.233 25.8989 137.978 26.027 137.688 26.027C137.352 26.027 137.248 25.9308 137.202 25.8561C137.093 25.6485 137.018 25.3292 137.018 24.8612V11.6445H139.318C139.569 11.6445 139.85 11.591 140.072 11.3967C140.307 11.1912 140.385 10.9094 140.385 10.6482C140.385 10.3871 140.307 10.1053 140.072 9.8998C139.85 9.70548 139.569 9.65203 139.318 9.65203H137.018V5.72158C137.018 5.49077 136.981 5.22913 136.832 5.01299C136.661 4.76307 136.397 4.65448 136.128 4.65448C135.81 4.65448 135.571 4.82846 135.412 5.02596C135.257 5.21691 135.142 5.46729 135.051 5.74068L135.051 5.74068L135.05 5.74379C134.706 6.79785 134.315 7.60494 133.886 8.18494C133.452 8.74852 132.868 9.29141 132.124 9.81006C131.829 10.0086 131.587 10.3092 131.587 10.7191C131.587 10.9829 131.683 11.2534 131.929 11.4381C132.148 11.6025 132.417 11.6445 132.655 11.6445H133.608V24.8257C133.608 26.1939 133.873 27.3004 134.512 28.027Z" fill="white" stroke="white"/>
<path d="M120.655 27.9793L120.655 27.9794L120.662 27.9859C121.405 28.7011 122.35 29.0473 123.455 29.0473C124.406 29.0473 125.243 28.8279 125.933 28.3582C126.572 27.9241 127.178 27.3038 127.757 26.5162C127.896 27.1282 128.131 27.6788 128.468 28.1606L128.468 28.1607L128.475 28.1705C128.902 28.7499 129.502 29.0473 130.224 29.0473C131.174 29.0473 131.98 28.563 132.638 27.7219C133.356 26.8093 133.666 25.4184 133.666 23.6561C133.666 23.4117 133.626 23.1389 133.468 22.9158C133.288 22.6609 133.016 22.5535 132.741 22.5535C132.48 22.5535 132.203 22.639 132.007 22.88C131.828 23.1012 131.78 23.3768 131.78 23.6206C131.78 24.5904 131.649 25.1788 131.467 25.4814C131.247 25.8185 131.097 25.8498 131.04 25.8498C131.003 25.8498 130.993 25.8421 130.991 25.8407C130.986 25.8373 130.961 25.8188 130.929 25.754C130.857 25.6104 130.795 25.3319 130.795 24.8612V14.0154C130.795 12.5965 130.491 11.439 129.797 10.6322C129.09 9.81108 128.054 9.43939 126.786 9.43939C125.955 9.43939 125.131 9.62162 124.317 9.97753C123.513 10.3294 122.773 10.8061 122.098 11.4053C121.422 11.9822 120.867 12.638 120.436 13.3727L120.436 13.3727L120.433 13.3775C120.017 14.106 119.8 14.8641 119.8 15.6458C119.8 16.0537 119.902 16.4514 120.195 16.7437C120.487 17.0359 120.885 17.1382 121.293 17.1382C121.843 17.1382 122.346 16.9082 122.791 16.5183L122.791 16.5183L122.793 16.517C123.312 16.0588 123.607 15.3782 123.735 14.5567C123.943 13.3351 124.265 12.5665 124.639 12.1546C125.066 11.6878 125.483 11.5027 125.9 11.5027C126.355 11.5027 126.687 11.674 126.947 12.0376L126.946 12.0377L126.953 12.047C127.206 12.3836 127.385 13.0462 127.385 14.1572V17.3826C127.385 17.4179 127.381 17.4384 127.378 17.4483C127.375 17.4572 127.373 17.4597 127.373 17.4599L127.373 17.4599C127.372 17.4604 127.369 17.4653 127.356 17.4733C127.343 17.482 127.318 17.4947 127.277 17.5072L127.277 17.5072L127.273 17.5084C125.817 17.9697 124.51 18.5792 123.357 19.3399C122.203 20.1005 121.28 20.9694 120.6 21.9512C119.908 22.9256 119.552 23.9816 119.552 25.1093C119.552 26.2597 119.909 27.2332 120.655 27.9793ZM127.31 19.5188L127.31 19.5188L127.319 19.5157C127.343 19.5064 127.365 19.4987 127.385 19.4924V22.0257C127.385 22.8866 127.231 23.6419 126.933 24.3009C126.628 24.9759 126.245 25.5025 125.791 25.8961C125.353 26.2528 124.898 26.4169 124.412 26.4169C123.934 26.4169 123.646 26.2634 123.458 26.0083C123.249 25.725 123.104 25.2395 123.104 24.4713C123.104 23.3064 123.456 22.3386 124.151 21.5387C124.886 20.6957 125.929 20.0169 127.31 19.5188Z" fill="white" stroke="white"/>
<path d="M106.819 8.2123L115.895 27.9049C115.895 27.9051 115.895 27.9054 115.896 27.9056C116.179 28.5245 116.625 29.0472 117.307 29.0472C117.669 29.0472 117.997 28.9154 118.241 28.6385C118.541 28.3272 118.622 27.8654 118.622 27.413V5.75696C118.622 5.01516 118.746 4.65544 118.86 4.51753L118.867 4.51003L118.873 4.50229C118.995 4.34367 119.268 4.17531 119.828 4.08908L120.272 4.0208C120.481 4.00189 120.713 3.93764 120.898 3.76736C121.101 3.57966 121.174 3.33178 121.174 3.09868C121.174 2.84245 121.078 2.58018 120.837 2.40307C120.624 2.24716 120.366 2.2088 120.142 2.2088H115.074C114.85 2.2088 114.592 2.24716 114.379 2.40307C114.138 2.58018 114.042 2.84245 114.042 3.09868C114.042 3.34179 114.137 3.56451 114.318 3.73191C114.483 3.88432 114.692 3.96538 114.89 4.0112L114.905 4.01467L114.921 4.0172L115.556 4.12311C115.843 4.17427 116.069 4.30428 116.252 4.52041L116.258 4.52798L116.265 4.5353C116.389 4.67112 116.523 5.02146 116.523 5.75696V20.5117L108.688 3.28166C108.537 2.94805 108.315 2.67079 108.012 2.48042C107.71 2.29076 107.362 2.2088 106.993 2.2088H103.2C102.977 2.2088 102.718 2.24716 102.506 2.40307C102.264 2.58018 102.168 2.84245 102.168 3.09868C102.168 3.34179 102.263 3.56451 102.445 3.73191C102.61 3.88432 102.818 3.96538 103.017 4.0112L103.03 4.01427L103.044 4.01661L103.859 4.15839C104.113 4.20264 104.301 4.25203 104.432 4.30164C104.556 4.34894 104.594 4.38322 104.594 4.38281C104.594 4.38278 104.594 4.38259 104.594 4.38223L104.605 4.39564L104.618 4.40887C104.618 4.40883 104.618 4.40882 104.618 4.40882C104.618 4.40891 104.646 4.44099 104.673 4.54909C104.701 4.66134 104.72 4.82411 104.72 5.04808V25.1801C104.72 25.7875 104.611 26.1806 104.455 26.4197C104.328 26.5925 104.058 26.7643 103.514 26.848L103.07 26.9162C102.861 26.9352 102.629 26.9994 102.445 27.1697C102.241 27.3574 102.168 27.6053 102.168 27.8384C102.168 28.0946 102.264 28.3569 102.506 28.534C102.718 28.6899 102.977 28.7282 103.2 28.7282H108.269C108.492 28.7282 108.75 28.6899 108.963 28.534C109.205 28.3569 109.3 28.0946 109.3 27.8384C109.3 27.6053 109.227 27.3574 109.024 27.1697C108.84 26.9994 108.608 26.9352 108.399 26.9162L107.958 26.8484C107.957 26.8484 107.957 26.8483 107.956 26.8482C107.451 26.7672 107.188 26.6028 107.056 26.4289C106.916 26.184 106.819 25.7853 106.819 25.1801V8.2123Z" fill="white" stroke="white"/>
<path d="M83.1163 26.9181L83.1069 26.9195L83.0976 26.9212C82.8997 26.9571 82.6879 27.0404 82.526 27.217C82.3582 27.4001 82.2971 27.6252 82.2971 27.8384C82.2971 28.0572 82.3588 28.3099 82.5656 28.4994C82.7641 28.6814 83.0139 28.7283 83.2224 28.7283H89.4251C89.6337 28.7283 89.8834 28.6814 90.0819 28.4994C90.2887 28.3099 90.3504 28.0572 90.3504 27.8384C90.3504 27.6252 90.2893 27.4001 90.1215 27.217C89.9596 27.0404 89.7478 26.9571 89.55 26.9212L89.5329 26.9181L89.5157 26.9162L88.5588 26.8098L88.5588 26.8098L88.551 26.809C88.1237 26.7683 87.9644 26.6696 87.9161 26.6215C87.8623 26.5255 87.7985 26.2982 87.7985 25.8536V16.3547C87.7985 15.5499 87.9611 14.8361 88.2773 14.2036L88.2774 14.2036L88.2802 14.1977C88.6028 13.5311 89.0244 13.0202 89.54 12.649L89.54 12.649L89.5429 12.6469C90.0722 12.2601 90.6543 12.0698 91.3036 12.0698C91.9763 12.0698 92.43 12.2692 92.7396 12.6131C93.0369 12.9435 93.2492 13.5992 93.2492 14.7243V25.8536C93.2492 26.3204 93.1663 26.533 93.1064 26.6099L93.0952 26.6243L93.0851 26.6395C93.071 26.6607 92.9494 26.7792 92.4734 26.8472L91.9772 26.9181L91.9678 26.9195L91.9585 26.9212C91.7606 26.9571 91.5488 27.0404 91.3869 27.217C91.2191 27.4001 91.158 27.6252 91.158 27.8384C91.158 28.0819 91.2416 28.342 91.4732 28.524C91.6818 28.6879 91.937 28.7283 92.1542 28.7283H98.1088C98.3174 28.7283 98.5671 28.6814 98.7656 28.4994C98.9724 28.3099 99.0341 28.0572 99.0341 27.8384C99.0341 27.6252 98.973 27.4001 98.8052 27.217C98.6433 27.0404 98.4315 26.9571 98.2337 26.9212L98.2228 26.9192L98.2118 26.9177L97.4352 26.8118C97.4346 26.8117 97.4341 26.8117 97.4336 26.8116C97.0167 26.7519 96.8347 26.6593 96.7695 26.6073C96.7175 26.5041 96.6594 26.2777 96.6594 25.8536V14.3344C96.6594 12.8309 96.3282 11.6068 95.582 10.7482C94.8369 9.86682 93.8158 9.43938 92.5796 9.43938C91.7534 9.43938 90.963 9.60767 90.213 9.94389C89.4835 10.2709 88.6777 10.8484 87.7985 11.6473V2.5671C87.7985 2.33629 87.7616 2.07465 87.613 1.85851C87.4412 1.60859 87.1777 1.5 86.9086 1.5C86.7196 1.5 86.5311 1.55653 86.3618 1.62707C86.1868 1.69999 85.9967 1.80314 85.7945 1.92947C85.5153 2.10114 85.162 2.27871 84.7297 2.46072C84.3197 2.63336 83.7987 2.7902 83.1598 2.9274C82.9645 2.96422 82.7564 3.04763 82.5969 3.22166C82.4291 3.40471 82.368 3.62981 82.368 3.84307C82.368 4.05633 82.4291 4.28144 82.5969 4.46448C82.7588 4.64107 82.9706 4.72435 83.1684 4.76033L83.1778 4.76203L83.1872 4.76337L83.9315 4.8697C84.2105 4.90956 84.2684 4.98386 84.2688 4.98434L84.2928 5.01801L84.3172 5.04237C84.3205 5.04796 84.3349 5.07334 84.3501 5.13397C84.3722 5.2226 84.3883 5.35583 84.3883 5.54437V25.8536C84.3883 26.3204 84.3054 26.533 84.2455 26.6099L84.2343 26.6243L84.2242 26.6395C84.2101 26.6607 84.0885 26.7792 83.6125 26.8472L83.1163 26.9181Z" fill="white" stroke="white"/>
<path d="M77.2899 28.027L77.2969 28.0349L77.3043 28.0426C77.9475 28.7138 78.7658 29.0473 79.721 29.0473C80.7917 29.0473 81.7043 28.5595 82.4435 27.6634C83.2362 26.7317 83.6218 25.2836 83.6941 23.4274L83.6945 23.4177V23.408C83.6945 23.1773 83.6506 22.9118 83.4786 22.6969C83.2896 22.4606 83.0213 22.3763 82.7692 22.3763C82.5233 22.3763 82.2787 22.4598 82.0927 22.6601C81.9206 22.8454 81.8449 23.0814 81.8134 23.3018L81.8114 23.3159L81.8102 23.3301C81.7176 24.418 81.5133 25.117 81.2544 25.5053L81.2497 25.5124L81.2453 25.5195C81.0104 25.8989 80.7554 26.027 80.4653 26.027C80.1302 26.027 80.0255 25.9308 79.9795 25.8561C79.8703 25.6485 79.7957 25.3292 79.7957 24.8612V11.6445H82.0957C82.3467 11.6445 82.6282 11.591 82.8503 11.3967C83.0852 11.1912 83.1628 10.9094 83.1628 10.6482C83.1628 10.3871 83.0852 10.1053 82.8503 9.8998C82.6282 9.70548 82.3467 9.65203 82.0957 9.65203H79.7957V5.72158C79.7957 5.49077 79.7588 5.22913 79.6102 5.01299C79.4384 4.76307 79.1749 4.65448 78.9058 4.65448C78.5882 4.65448 78.3492 4.82846 78.1893 5.02596C78.0348 5.21691 77.9201 5.46729 77.8289 5.74068L77.8289 5.74068L77.8279 5.74379C77.4842 6.79785 77.0924 7.60494 76.6636 8.18494C76.2294 8.74852 75.6456 9.29141 74.9022 9.81006C74.6065 10.0086 74.3652 10.3092 74.3652 10.7191C74.3652 10.9829 74.4607 11.2534 74.707 11.4381C74.9262 11.6025 75.1952 11.6445 75.4323 11.6445H76.3855V24.8257C76.3855 26.1939 76.6505 27.3004 77.2899 28.027Z" fill="white" stroke="white"/>
<path d="M64.4004 28.0464L64.4003 28.0464L64.4076 28.0509C65.4919 28.7222 66.7681 29.0473 68.2151 29.0473C69.5716 29.0473 70.8056 28.7323 71.9045 28.0935L71.9045 28.0935L71.9119 28.0891C73.0016 27.4301 73.8654 26.5406 74.4981 25.4272C75.136 24.3044 75.4494 23.0362 75.4494 21.6358C75.4494 20.1726 75.0573 18.8275 74.2739 17.6125C73.5436 16.422 72.3378 15.3007 70.6988 14.2371C71.8906 13.5442 72.8665 12.6832 73.6171 11.6512L73.6171 11.6512L73.6202 11.6469C74.4325 10.5045 74.8469 9.25826 74.8469 7.91909C74.8469 6.77585 74.5794 5.74092 74.0329 4.82904C73.4931 3.90457 72.7568 3.18031 71.8297 2.66421C70.8976 2.12164 69.854 1.85443 68.7113 1.85443C67.5232 1.85443 66.4151 2.12066 65.3953 2.65605L65.6277 3.09875L65.3953 2.65605C64.3779 3.19019 63.5471 3.93099 62.9096 4.87455L62.9095 4.8745L62.9044 4.88239C62.278 5.84816 61.9732 6.97335 61.9732 8.23808C61.9732 9.46968 62.3204 10.698 62.9923 11.9174L62.9923 11.9174L62.9944 11.9212C63.6397 13.0683 64.6027 14.0858 65.8631 14.9797C64.4101 15.7879 63.2571 16.7724 62.4223 17.9406C61.531 19.1638 61.0872 20.5669 61.0872 22.132C61.0872 23.2805 61.3687 24.3875 61.924 25.4476L61.9273 25.454L61.9308 25.4602C62.5168 26.5048 63.3436 27.367 64.4004 28.0464ZM70.4126 14.3978C70.4121 14.3981 70.4119 14.3983 70.4119 14.3983L70.4126 14.3978ZM68.8896 13.1081L68.8819 13.1028L68.874 13.0977C67.7871 12.404 66.9783 11.7481 66.4289 11.1337C65.8756 10.4912 65.5159 9.86858 65.3278 9.26699C65.1521 8.62744 65.0644 7.97768 65.0644 7.31654C65.0644 6.22231 65.3924 5.38962 66.0139 4.76653C66.661 4.14119 67.5199 3.81141 68.6404 3.81141C69.7182 3.81141 70.4487 4.17246 70.9273 4.84256L70.932 4.84919L70.937 4.85566C71.4645 5.54549 71.7557 6.51347 71.7557 7.81276C71.7557 8.90027 71.5343 9.90146 71.0954 10.8232L71.0953 10.8231L71.0913 10.832C70.6792 11.7428 70.0635 12.4889 69.2369 13.0762L69.2292 13.0816L69.2217 13.0874C69.1287 13.1589 69.0723 13.1692 69.0466 13.1702C69.0228 13.1711 68.9738 13.1664 68.8896 13.1081ZM71.2592 25.9658L71.2592 25.9658L71.2542 25.971C70.5648 26.701 69.5976 27.0903 68.286 27.0903C67.2234 27.0903 66.4446 26.8583 65.8967 26.4493C65.3163 25.992 64.9004 25.4012 64.6475 24.6636C64.3823 23.8901 64.2492 23.0826 64.2492 22.2383C64.2492 19.5276 65.2679 17.5157 67.2925 16.1292L67.2946 16.1278C67.383 16.0666 67.4392 16.0572 67.4708 16.0572C67.5024 16.0572 67.5586 16.0666 67.647 16.1278L67.6642 16.1397L67.6823 16.1501C68.5999 16.6777 69.4093 17.2599 70.1129 17.8954L70.1129 17.8954L70.1197 17.9014C70.8015 18.4952 71.3392 19.1975 71.7352 20.0114L71.7388 20.0188L71.7426 20.0261C72.1452 20.7889 72.3582 21.7324 72.3582 22.8763C72.3582 24.2172 71.9767 25.2278 71.2592 25.9658Z" fill="white" stroke="white"/>
<path d="M55.1597 26.7735L55.1561 26.7739L53.7795 26.9151C53.5667 26.9324 53.3286 26.9957 53.1401 27.1697C52.9367 27.3574 52.864 27.6053 52.864 27.8384C52.864 28.0946 52.9597 28.3569 53.2012 28.534C53.4138 28.6899 53.6721 28.7283 53.8957 28.7283H61.1262C61.3498 28.7283 61.608 28.6899 61.8206 28.534C62.0621 28.3569 62.1578 28.0946 62.1578 27.8384C62.1578 27.6053 62.0851 27.3574 61.8818 27.1697C61.6947 26.9971 61.4589 26.9334 61.2474 26.9155L60.0876 26.7749L60.0876 26.7748L60.0748 26.7736C59.6372 26.7319 59.4403 26.6376 59.3667 26.5757C59.3258 26.5164 59.2515 26.3301 59.2515 25.889V2.95694C59.2515 2.62561 59.1728 2.2843 58.9271 2.02689C58.6772 1.76512 58.3384 1.67719 58.0071 1.67719C57.6316 1.67719 57.1266 1.81014 56.535 2.02261C55.9791 2.19964 55.0891 2.39492 53.8474 2.60578L53.8474 2.6057L53.839 2.60728C53.605 2.65115 53.365 2.73472 53.1765 2.89965C52.9693 3.081 52.864 3.32651 52.864 3.59493C52.864 3.87421 52.9606 4.16843 53.2308 4.36357C53.4724 4.5381 53.769 4.56942 54.0297 4.55493L54.0435 4.55416L54.0572 4.55264L55.3332 4.41087L55.3332 4.41098L55.3441 4.40954C55.626 4.37195 55.7736 4.41995 55.8513 4.47172L55.8772 4.48899L55.905 4.50291L55.9056 4.50318C55.9128 4.50677 55.9239 4.5123 55.9393 4.54615C55.9593 4.59032 55.9831 4.67891 55.9831 4.83546V25.889C55.9831 26.3548 55.8877 26.5215 55.846 26.5633L55.8342 26.5751L55.8232 26.5876C55.7933 26.6218 55.6369 26.7281 55.1597 26.7735Z" fill="white" stroke="white"/>
<path d="M40.1649 32.5434L40.1647 32.5433L40.1579 32.5555C40.0704 32.7109 39.9959 32.7944 39.9446 32.8355C39.9205 32.8548 39.9046 32.8622 39.8973 32.865C39.8965 32.8653 39.8958 32.8656 39.8951 32.8658C39.8384 32.7288 39.7803 32.5719 39.7211 32.3944C39.6246 32.1048 39.4637 31.8497 39.2459 31.6318C38.943 31.329 38.5095 31.2373 38.0771 31.2373C37.5003 31.2373 36.9988 31.4418 36.6321 31.8751C36.2869 32.2831 36.124 32.7797 36.124 33.3323C36.124 34.0201 36.3567 34.6326 36.813 35.1481C37.2946 35.7171 37.9465 35.9943 38.7151 35.9943C39.3002 35.9943 39.8349 35.8403 40.3011 35.5224C40.7982 35.2073 41.2354 34.5835 41.6408 33.7737C42.087 32.9294 42.5694 31.668 43.0905 30.01C43.0907 30.0096 43.0908 30.0091 43.0909 30.0087L48.3696 13.5351C48.6258 12.7906 48.8522 12.3259 49.0357 12.0874L48.6394 11.7825L49.0357 12.0874C49.2136 11.856 49.4273 11.7043 49.6836 11.6189L50.0026 11.5125C50.1996 11.4469 50.3952 11.3412 50.5431 11.1687C50.6984 10.9874 50.7698 10.7686 50.7698 10.542C50.7698 10.2985 50.6862 10.0384 50.4546 9.85641C50.246 9.69248 49.9908 9.6521 49.7736 9.6521H45.2722C45.0624 9.6521 44.8152 9.68685 44.6094 9.83384C44.3726 10.003 44.276 10.257 44.276 10.5065C44.276 10.7445 44.3584 10.9732 44.5376 11.1525C44.7042 11.319 44.9184 11.407 45.1243 11.4545L45.1337 11.4567L45.1432 11.4585L45.8875 11.6003L45.8948 11.6016L45.9021 11.6028C46.1614 11.6443 46.3167 11.7053 46.4019 11.7601C46.475 11.807 46.4816 11.8378 46.4846 11.8518L46.4892 11.8732L46.4956 11.8941C46.5434 12.0494 46.5377 12.3961 46.3532 13.02L43.4843 22.3015L40.5054 12.383L40.5055 12.383L40.503 12.3752C40.4276 12.1382 40.3972 11.9682 40.3934 11.8545C40.3916 11.8018 40.3958 11.7716 40.3988 11.7572C40.4202 11.7381 40.4694 11.7031 40.5703 11.664C40.7024 11.6129 40.8923 11.5668 41.1519 11.5343L41.719 11.4634L41.726 11.4626L41.733 11.4615C41.948 11.4284 42.1779 11.3484 42.3561 11.1702C42.5447 10.9816 42.6177 10.7412 42.6177 10.5065C42.6177 10.257 42.5211 10.003 42.2843 9.83384C42.0785 9.68685 41.8313 9.6521 41.6215 9.6521H35.7733C35.5635 9.6521 35.3163 9.68685 35.1105 9.83384C34.8737 10.003 34.7771 10.257 34.7771 10.5065C34.7771 10.7445 34.8595 10.9732 35.0387 11.1525C35.2053 11.319 35.4195 11.407 35.6254 11.4545L35.6326 11.4562L35.6398 11.4576L36.1679 11.5632C36.445 11.623 36.5582 11.7061 36.5988 11.7535L36.6113 11.768L36.6248 11.7816C36.6448 11.8016 36.6977 11.8708 36.7708 12.0326C36.8406 12.187 36.9157 12.3964 36.9946 12.6668L36.9945 12.6669L36.9976 12.6767L40.8609 24.9756L40.8609 24.9756L40.8636 24.9839C41.1413 25.8169 41.3078 26.5025 41.3732 27.0474L41.3743 27.0572L41.3759 27.0668C41.4637 27.6157 41.473 28.1212 41.4096 28.5861L41.4081 28.5973L41.4071 28.6084C41.3645 29.0773 41.2343 29.6521 41.0054 30.3387L41.0054 30.3386L41.0035 30.3444C40.6224 31.5354 40.3428 32.2469 40.1649 32.5434Z" fill="white" stroke="white"/>
<path d="M25.1115 27.9793L25.1114 27.9794L25.1182 27.9859C25.8609 28.7011 26.8058 29.0473 27.9106 29.0473C28.8625 29.0473 29.6987 28.8279 30.3893 28.3582C31.0278 27.9241 31.6341 27.3038 32.2131 26.5162C32.3516 27.1282 32.5867 27.6788 32.9239 28.1606L32.9238 28.1607L32.931 28.1705C33.3579 28.7499 33.9576 29.0473 34.6804 29.0473C35.6304 29.0473 36.4365 28.563 37.0939 27.7219C37.8125 26.8093 38.1222 25.4184 38.1222 23.6561C38.1222 23.4117 38.0818 23.1389 37.9244 22.9158C37.7444 22.6609 37.4724 22.5535 37.1969 22.5535C36.9356 22.5535 36.6591 22.639 36.4633 22.88C36.2836 23.1012 36.2361 23.3768 36.2361 23.6206C36.2361 24.5904 36.1051 25.1788 35.9227 25.4814C35.7031 25.8185 35.5532 25.8498 35.4956 25.8498C35.459 25.8498 35.4493 25.8421 35.4473 25.8407C35.4421 25.8373 35.4169 25.8188 35.3846 25.754C35.3128 25.6104 35.2513 25.3319 35.2513 24.8612V14.0154C35.2513 12.5965 34.9475 11.439 34.253 10.6322C33.5461 9.81108 32.5102 9.43939 31.2424 9.43939C30.4111 9.43939 29.587 9.62162 28.7735 9.97753C27.9693 10.3294 27.2293 10.8061 26.5545 11.4053C25.8781 11.9822 25.3226 12.638 24.8919 13.3727L24.8919 13.3727L24.8891 13.3775C24.4728 14.106 24.2562 14.8641 24.2562 15.6458C24.2562 16.0537 24.3585 16.4514 24.6507 16.7437C24.943 17.0359 25.3407 17.1382 25.7486 17.1382C26.2995 17.1382 26.8019 16.9082 27.2475 16.5183L27.2475 16.5183L27.249 16.517C27.7683 16.0588 28.0626 15.3782 28.1915 14.5567C28.3992 13.3351 28.7212 12.5666 29.0955 12.1546C29.5218 11.6879 29.9394 11.5027 30.3563 11.5027C30.8106 11.5027 31.1428 11.674 31.4026 12.0376L31.4025 12.0377L31.4095 12.047C31.6619 12.3836 31.8411 13.0462 31.8411 14.1572V17.3826C31.8411 17.4179 31.8367 17.4384 31.8337 17.4483C31.831 17.4572 31.8289 17.4597 31.8287 17.4599C31.8285 17.4602 31.8248 17.4652 31.8121 17.4733C31.7986 17.482 31.7741 17.4947 31.7333 17.5072L31.7333 17.5072L31.7294 17.5084C30.2728 17.9697 28.9659 18.5792 27.8126 19.3399C26.6594 20.1005 25.736 20.9694 25.0557 21.9512C24.3641 22.9256 24.0081 23.9816 24.0081 25.1093C24.0081 26.2597 24.3653 27.2332 25.1115 27.9793ZM31.7664 19.5188L31.7664 19.5188L31.7748 19.5157C31.7992 19.5064 31.8213 19.4987 31.8411 19.4924V22.0257C31.8411 22.8866 31.6868 23.6419 31.3892 24.3009C31.0844 24.9759 30.7012 25.5025 30.2472 25.8961C29.8093 26.2528 29.3537 26.4169 28.8676 26.4169C28.3898 26.4169 28.1025 26.2634 27.914 26.0083C27.7046 25.725 27.56 25.2395 27.56 24.4713C27.56 23.3064 27.9123 22.3386 28.6069 21.5387C29.3419 20.6957 30.3853 20.0169 31.7664 19.5188Z" fill="white" stroke="white"/>
<path d="M6.78083 7.79759L11.6135 27.4163C11.67 27.6912 11.7929 28.0166 12.0923 28.1962C12.2548 28.2937 12.4511 28.3738 12.6685 28.3738C12.8869 28.3738 13.0775 28.2935 13.2332 28.1814C13.5152 27.9991 13.6331 27.684 13.6881 27.4166L18.5425 7.80752L19.0803 25.9038L19.0802 25.9038L19.0806 25.9127C19.0912 26.1359 19.079 26.296 19.0557 26.4045C19.0363 26.495 19.0144 26.5262 19.0121 26.5295C18.9603 26.5794 18.7656 26.6875 18.2852 26.7794L17.4741 26.9204L17.4606 26.9228L17.4473 26.9258C17.2488 26.9717 17.0402 27.0527 16.8751 27.2051C16.6937 27.3725 16.599 27.5952 16.599 27.8384C16.599 28.0946 16.6947 28.3569 16.9362 28.534C17.1488 28.6899 17.4071 28.7282 17.6307 28.7282H24.046C24.2695 28.7282 24.5278 28.6899 24.7404 28.534C24.9819 28.3569 25.0776 28.0946 25.0776 27.8384C25.0776 27.5952 24.9829 27.3725 24.8016 27.2051C24.6364 27.0527 24.4278 26.9717 24.2293 26.9258L24.216 26.9228L24.2025 26.9204L23.3914 26.7794C23.1642 26.7359 22.9965 26.6878 22.8789 26.6399C22.766 26.5939 22.7286 26.5599 22.7245 26.5562C22.7241 26.5558 22.7241 26.5557 22.7243 26.556C22.7245 26.5563 22.6935 26.5164 22.6614 26.388C22.6309 26.2659 22.6071 26.0955 22.5961 25.8685L21.8874 5.03109L21.8874 5.03108L21.8871 5.0243C21.8765 4.80118 21.8888 4.64109 21.912 4.53258C21.9314 4.44206 21.9533 4.41084 21.9556 4.40753C22.0074 4.35761 22.2021 4.24956 22.6825 4.15769L23.4936 4.01661L23.5071 4.01427L23.5204 4.0112C23.719 3.96538 23.9276 3.88433 24.0927 3.73191C24.274 3.56451 24.3687 3.3418 24.3687 3.09868C24.3687 2.84245 24.273 2.58018 24.0315 2.40307C23.8189 2.24716 23.5607 2.2088 23.3371 2.2088H19.1547C18.7677 2.2088 18.4016 2.30271 18.1026 2.53631C17.8036 2.76988 17.6252 3.10127 17.5349 3.47579C17.5347 3.4766 17.5345 3.4774 17.5343 3.47821L13.3461 20.2309L9.32755 3.6585C9.32737 3.65774 9.32719 3.65698 9.32702 3.65623C9.22554 3.223 9.02434 2.84639 8.68968 2.58219C8.35478 2.31779 7.94048 2.2088 7.49377 2.2088H3.24053C3.01695 2.2088 2.75871 2.24716 2.54611 2.40307C2.30458 2.58018 2.20887 2.84245 2.20887 3.09868C2.20887 3.3418 2.30358 3.56451 2.48492 3.73191C2.65004 3.88433 2.85865 3.96538 3.05721 4.0112L3.07052 4.01427L3.08397 4.01661L3.89917 4.15839C4.1536 4.20263 4.34659 4.2524 4.48615 4.30358C4.62531 4.3546 4.68005 4.39582 4.69298 4.40767C4.69574 4.41165 4.71732 4.44322 4.73647 4.53258C4.75972 4.64109 4.77201 4.80118 4.76138 5.0243L4.76135 5.0243L4.76113 5.03049L4.05226 25.1622C4.05226 25.1623 4.05225 25.1624 4.05225 25.1625C4.03022 25.7785 3.90989 26.181 3.74604 26.4268L3.74598 26.4268L3.74147 26.4338C3.6417 26.589 3.39933 26.7628 2.84551 26.848L2.40169 26.9162C2.19244 26.9352 1.96053 26.9994 1.77605 27.1697C1.57271 27.3574 1.5 27.6053 1.5 27.8384C1.5 28.0946 1.59571 28.3569 1.83723 28.534C2.04983 28.6899 2.30808 28.7282 2.53165 28.7282H7.6001C7.82367 28.7282 8.08192 28.6899 8.29452 28.534C8.53604 28.3569 8.63175 28.0946 8.63175 27.8384C8.63175 27.6053 8.55905 27.3574 8.3557 27.1697C8.17123 26.9994 7.93932 26.9352 7.73006 26.9162L7.28921 26.8484C7.28875 26.8484 7.28829 26.8483 7.28783 26.8482C6.77404 26.7658 6.511 26.5971 6.38113 26.4199C6.22968 26.1881 6.12877 25.8029 6.15038 25.1979L6.78083 7.79759Z" fill="white" stroke="white"/>
</g>
<defs>
<filter id="filter0_f_9_186" x="0.5" y="0.5" width="303.768" height="36.4943" filterUnits="userSpaceOnUse" color-interpolation-filters="sRGB">
<feFlood flood-opacity="0" result="BackgroundImageFix"/>
<feBlend mode="normal" in="SourceGraphic" in2="BackgroundImageFix" result="shape"/>
<feGaussianBlur stdDeviation="0.25" result="effect1_foregroundBlur_9_186"/>
</filter>
</defs>
</svg>
